<svg xmlns="http://www.w3.org/2000/svg" xmlns:vectornator="http://vectornator.io" xml:space="preserve" style="fill-rule:nonzero;clip-rule:evenodd;stroke-linecap:round;stroke-linejoin:round" viewBox="0 0 1061.01 309"><g vectornator:layerName="Layer 1"><path fill="#0091e2" d="M426.546 116.856c-1.192-.981-11.987-9.183-35.155-9.183-5.993 0-12.197.596-18.191 1.612-4.381-30.563-29.757-45.354-30.773-46.125l-6.204-3.61-3.996 5.783c-4.977 7.781-8.797 16.579-10.971 25.551-4.206 17.385-1.612 33.753 7.186 47.738-10.585 5.994-27.76 7.396-31.37 7.606H13.413c-7.395 0-13.389 5.994-13.389 13.389a202.424 202.424 0 0 0 12.373 72.904c9.779 25.551 24.36 44.548 43.147 56.115C76.714 301.604 111.273 309 150.213 309c17.56 0 35.155-1.613 52.54-4.802a216.556 216.556 0 0 0 68.698-24.956 188.282 188.282 0 0 0 46.756-38.344c22.572-25.376 35.961-53.732 45.74-78.898h3.996c24.57 0 39.746-9.778 48.123-18.19 5.608-5.188 9.779-11.602 12.793-18.787l1.788-5.188-4.101-2.979Zm-175.565 21.17h37.959c1.788 0 3.4-1.402 3.4-3.399v-33.964c0-1.787-1.402-3.4-3.4-3.4h-37.959c-1.787 0-3.399 1.402-3.399 3.4v33.964c.21 1.997 1.612 3.399 3.399 3.399Zm-52.925-97.263h37.959c1.788 0 3.4-1.402 3.4-3.4V3.4c0-1.788-1.612-3.4-3.4-3.4h-37.959c-1.787 0-3.4 1.402-3.4 3.4v33.963c0 1.788 1.578 3.4 3.4 3.4Zm0 48.72h37.959c1.788 0 3.4-1.613 3.4-3.4V52.118c0-1.787-1.612-3.4-3.4-3.4h-37.959c-1.787 0-3.4 1.402-3.4 3.4v33.963c0 1.823 1.578 3.4 3.4 3.4Zm-52.54 0h37.959c1.788 0 3.4-1.613 3.4-3.4V52.118c0-1.787-1.402-3.4-3.4-3.4h-37.959c-1.787 0-3.399 1.402-3.399 3.4v33.963c0 1.823 1.402 3.4 3.399 3.4Zm-53.345 0h37.959c1.787 0 3.399-1.613 3.399-3.4V52.118c0-1.787-1.402-3.4-3.399-3.4H92.17c-1.787 0-3.4 1.402-3.4 3.4v33.963c.211 1.823 1.613 3.4 3.4 3.4Zm105.885 48.543h37.959c1.788 0 3.4-1.402 3.4-3.399v-33.964c0-1.787-1.402-3.4-3.4-3.4h-37.959c-1.787 0-3.4 1.402-3.4 3.4v33.964c0 1.997 1.578 3.399 3.4 3.399Zm-52.54 0h37.959c1.788 0 3.4-1.402 3.4-3.399v-33.964c0-1.787-1.402-3.4-3.4-3.4h-37.959c-1.787 0-3.399 1.402-3.399 3.4v33.964c0 1.997 1.402 3.399 3.399 3.399Zm-53.345 0h37.959c1.787 0 3.399-1.402 3.399-3.399v-33.964c0-1.787-1.402-3.4-3.399-3.4H92.17c-1.787 0-3.4 1.402-3.4 3.4v33.964c.211 1.997 1.613 3.399 3.4 3.399Zm-52.33 0h37.96c1.787 0 3.399-1.402 3.399-3.399v-33.964c0-1.787-1.402-3.4-3.4-3.4H39.841c-1.787 0-3.4 1.402-3.4 3.4v33.964c.21 1.997 1.613 3.399 3.4 3.399Z"/><path fill="#3b9aea" stroke="#3b9aea" stroke-linecap="butt" stroke-width="3" d="M1000.51 116.671c-8.492 0-16.375 1.498-23.655 4.531-7.28 3.033-13.665 7.252-19.125 12.625-5.46 5.373-9.724 11.65-12.844 18.844-3.119 7.193-4.687 14.961-4.687 23.281 0 8.146 1.498 15.768 4.531 22.875 3.033 7.106 7.175 13.345 12.375 18.719 5.2 5.373 11.331 9.56 18.438 12.593 7.106 3.033 14.728 4.563 22.875 4.563 8.142 0 15.842-1.568 23.032-4.688 7.19-3.12 13.51-7.415 18.97-12.875 5.46-5.46 9.75-11.775 12.87-18.968 3.12-7.194 4.69-14.854 4.69-23 0-7.974-1.53-15.48-4.56-22.5-3.04-7.02-7.18-13.221-12.47-18.594-5.29-5.373-11.41-9.63-18.34-12.75-6.94-3.12-14.3-4.656-22.1-4.656Zm-486.967.5c-8.146 0-15.73 1.567-22.75 4.687s-13.182 7.307-18.468 12.594c-5.287 5.287-9.436 11.557-12.469 18.75-3.034 7.193-4.563 14.853-4.563 23 0 8.146 1.53 15.73 4.563 22.75 3.033 7.02 7.22 13.182 12.594 18.469 5.373 5.286 11.612 9.435 18.718 12.468 7.107 3.034 14.729 4.563 22.875 4.563 6.587 0 12.488-.854 17.688-2.5 5.2-1.647 11.254-4.636 18.187-8.969l1.563-23.656c-4.68 3.293-8.683 5.982-12.063 8.062-3.38 2.08-6.438 3.686-9.125 4.813-2.686 1.126-5.268 1.91-7.781 2.344a46.741 46.741 0 0 1-7.937.656c-5.72 0-11.022-1.007-15.875-3-4.854-1.994-9.041-4.759-12.594-8.313-3.554-3.553-6.358-7.702-8.438-12.468-2.08-4.767-3.125-9.922-3.125-15.469 0-5.547 1.045-10.772 3.125-15.625s4.923-9.041 8.563-12.594c3.64-3.553 7.897-6.389 12.75-8.469 4.853-2.08 10.124-3.093 15.844-3.093 2.6 0 5.027.153 7.281.5 2.253.346 4.681 1.015 7.281 1.968 2.6.954 5.474 2.229 8.594 3.875 3.12 1.647 6.746 3.775 10.906 6.375l4.688-19.5c-4.16-2.253-7.971-4.197-11.438-5.843-3.467-1.647-6.717-2.915-9.75-3.782a68.089 68.089 0 0 0-9.094-1.937c-3.033-.433-6.283-.656-9.75-.656Zm115.438.281c-8.147 0-15.769 1.536-22.875 4.656-7.107 3.12-13.346 7.377-18.719 12.75-5.373 5.374-9.592 11.651-12.625 18.844-3.033 7.193-4.563 14.853-4.563 23 0 8.146 1.53 15.73 4.563 22.75 3.033 7.02 7.144 13.144 12.344 18.344 5.2 5.2 11.323 9.272 18.343 12.218 7.02 2.947 14.604 4.438 22.75 4.438 21.667 0 38.554-9.82 50.688-29.406l8.594 27.062h20.531l-20.813-64.75c-1.386-4.16-2.623-7.748-3.75-10.781-1.126-3.033-2.248-5.723-3.375-8.063-1.126-2.34-2.356-4.391-3.656-6.125-1.3-1.733-2.721-3.53-4.281-5.437-5.374-6.24-11.835-11.058-19.375-14.438-7.54-3.38-15.461-5.062-23.781-5.062Zm233.718 0c-8.147 0-15.768 1.498-22.875 4.531-7.107 3.033-13.307 7.182-18.594 12.469-5.286 5.287-9.473 11.487-12.593 18.594-3.12 7.106-4.688 14.651-4.688 22.625 0 7.973 1.529 15.48 4.563 22.5 3.033 7.019 7.143 13.182 12.343 18.468 5.2 5.287 11.293 9.436 18.313 12.469 7.02 3.033 14.526 4.563 22.5 4.563 7.8-.001 14.746-1.453 20.812-4.313 6.067-2.86 12.382-7.907 18.969-15.187-.693 5.546-1.592 9.995-2.719 13.375-1.126 3.38-2.917 6.63-5.344 9.75-3.466 5.026-8.061 8.983-13.781 11.843-5.72 2.86-11.697 4.281-17.937 4.281-7.627 0-14.165-1.682-19.625-5.062-5.46-3.38-10.616-8.981-15.469-16.781l-18.469 5.969c2.427 4.506 4.517 8.056 6.25 10.656 1.734 2.6 3.639 4.951 5.719 7.031 5.373 5.547 11.689 9.803 18.969 12.75a59.77 59.77 0 0 0 22.625 4.406c10.746 0 20.573-2.543 29.5-7.656 8.926-5.113 16.018-12.282 21.218-21.469 5.374-9.186 8.032-20.619 8.032-34.312v-31.469c0-6.24-.599-11.81-1.813-16.75-1.213-4.94-3.119-9.757-5.719-14.437-5.199-8.84-12.26-15.863-21.187-21.063-8.927-5.2-18.6-7.781-29-7.781Zm-76.687 1.531c-8.667 0-16.696 1.529-24.063 4.563-7.366 3.033-13.759 7.182-19.219 12.468-5.46 5.287-9.755 11.526-12.875 18.719-3.12 7.193-4.687 14.961-4.687 23.281v54.094h19.5v-55.125c0-13.173 4.932-23.407 14.812-30.687 3.987-2.947 8.059-5.037 12.219-6.25 4.16-1.214 9.908-1.997 17.188-2.344v-18.719h-2.875Zm212.687 16.406c5.371 0 10.491 1.084 15.341 3.25 4.86 2.167 9.08 5.048 12.72 8.688 3.64 3.64 6.52 7.897 8.6 12.75s3.12 9.97 3.12 15.344c0 5.72-1.04 11.06-3.12 16-2.08 4.939-4.96 9.165-8.6 12.718-3.64 3.554-7.9 6.389-12.84 8.469-4.94 2.08-10.28 3.094-16.002 3.094-5.374 0-10.414-1.014-15.094-3.094s-8.752-4.915-12.219-8.469c-3.467-3.553-6.194-7.702-8.187-12.468-1.994-4.767-3-9.922-3-15.469 0-5.72 1.006-11.06 3-16 1.993-4.94 4.759-9.273 8.312-13 3.554-3.727 7.733-6.639 12.5-8.719 4.767-2.08 9.922-3.094 15.469-3.094Zm-136 .5c5.373.001 10.452 1.045 15.219 3.125 4.766 2.08 8.946 4.885 12.5 8.438 3.553 3.553 6.357 7.733 8.437 12.5 2.08 4.767 3.125 9.845 3.125 15.219 0 5.373-1.045 10.459-3.125 15.312s-4.954 9.11-8.593 12.75a40.65 40.65 0 0 1-12.594 8.594c-4.767 2.08-9.846 3.125-15.219 3.125-5.547 0-10.702-1.045-15.469-3.125-4.766-2.08-8.915-4.954-12.468-8.594-3.554-3.64-6.389-7.897-8.469-12.75-2.08-4.853-3.125-10.047-3.125-15.594 0-5.2 1.083-10.17 3.25-14.937 2.166-4.767 5.079-8.947 8.719-12.5 3.64-3.553 7.858-6.358 12.625-8.438 4.766-2.08 9.814-3.125 15.187-3.125Zm-233.468.282c5.373 0 10.452.975 15.218 2.968 4.767 1.994 8.839 4.76 12.219 8.313 3.38 3.553 6.069 7.772 8.063 12.625 1.993 4.853 2.968 10.155 2.968 15.875 0 5.72-.975 10.952-2.968 15.719-1.994 4.766-4.76 8.915-8.313 12.468-3.553 3.554-7.772 6.281-12.625 8.188-4.853 1.906-10.232 2.875-16.125 2.875-5.373 0-10.382-1.007-15.062-3-4.68-1.994-8.752-4.759-12.219-8.313-3.467-3.553-6.225-7.771-8.219-12.625-1.993-4.853-2.969-10.047-2.969-15.593 0-5.374 1.045-10.452 3.125-15.219 2.081-4.767 4.923-8.954 8.563-12.594 3.64-3.64 7.897-6.514 12.75-8.594 4.853-2.08 10.047-3.093 15.594-3.093Z"/></g></svg>