<?xml version="1.0" encoding="utf-8"?>
<!-- Generator: Adobe Illustrator 24.1.2, SVG Export Plug-In . SVG Version: 6.00 Build 0)  -->
<svg version="1.1" id="Layer_1" xmlns="http://www.w3.org/2000/svg" xmlns:xlink="http://www.w3.org/1999/xlink" x="0px" y="0px"
	 viewBox="0 0 408.1 328" style="enable-background:new 0 0 408.1 328;" xml:space="preserve">
<style type="text/css">
	.st0{fill-rule:evenodd;clip-rule:evenodd;}
	.st1{fill-rule:evenodd;clip-rule:evenodd;fill:#C64E3B;}
	.st2{stroke:#000000;}
	.st3{stroke:#000000;stroke-width:1.4606;stroke-linecap:round;stroke-linejoin:round;stroke-miterlimit:5;}
	.st4{fill:#2076C1;stroke:#2076C1;}
	.st5{fill:#2076C1;stroke:#2076C1;stroke-width:1.4606;stroke-linecap:round;stroke-linejoin:round;stroke-miterlimit:5;}
</style>
<g>
	<path class="st0" d="M259.4,67.5c-2.4,1.5-11.4,20.7-11.5,23c17.5,28.9,49.9-19.9,55.8-42.2c0,0-15.3,26.9-29.2,27.4
		C258.2,76.3,261.7,66,259.4,67.5z"/>
	<path class="st0" d="M31.7,34.7l-9.8,24.7c0,0,6,14.4,15.8,15.3c22.3,2.1,47.2-40.2,54.2-40c7,0.2,21.2,11.3,28.8,26.8
		c9.9-19.4,22-28.1,42.1-13.7c11.7,8.4,36.1,41.6,50.7,43.2c15.8,1.8,29.4-13.3,35.9-40.8c-9.1,11.7-12.8,17-21.8,17.6
		c-9.4,0.6-8.6,2.5-41.3-31.5s-48.2-17.7-57.9-3.3c-2.2-2.4-13.1-20.1-26.3-20c-9.4,0.1-24.9,22.2-34.3,30.3
		c-9.7,8.4-15.5,9.8-19,9.9C43.3,53.3,36.7,50.5,31.7,34.7z"/>
	<path class="st0" d="M111.7,61.1C87,91.1,86,91.8,73.1,113.2c-13,21.3-16.4,35.5-10.3,40.8c6.1,5.3,17.1,5.6,30.4-4.3
		c18.6-14.3,43.5-34.6,50.3-52c1.8-4.5-30.5,26.1-43.5,33.6c-7.8,4.5-18.2,5.7-23.8,0.3C64.7,120.6,116,65.8,111.7,61.1L111.7,61.1z
		 M148.3,107c-0.1-2.4,12.5-20.9,14.6-21.6c31.4,21.1,15,75.4,4.7,80.1c0,0,1.8-23.3-2.9-37.9C160.1,113,148.4,109.5,148.3,107z
		 M311.7,59.9c-3-12.6,10.5-46.7,27.7-46.7c42.9,0,22.1,68.4,13.7,93.6c-20.4,52.8-33.3,131.8-34.2,138.6
		c-1.1,8.3-13.9,30.5-7.4-6.2c6.5-36.7,18.1-79.6,32.1-129.5c7.3-26.2,16.2-73-8.5-73C322.4,36.5,323.1,45.5,311.7,59.9z"/>
</g>
<g>
	<path class="st1" d="M266.4,61.1c-2.4,1.5-11.4,20.7-11.5,23c17.5,28.9,49.9-19.9,55.8-42.2c0,0-15.3,26.9-29.2,27.4
		C265.2,69.9,268.7,59.6,266.4,61.1z"/>
	<path class="st1" d="M38.7,28.3L28.9,53c0,0,6,14.4,15.8,15.3c22.3,2.1,47.2-40.2,54.2-40c7,0.2,21.2,11.3,28.8,26.8
		c9.9-19.4,22-28.1,42.1-13.7c11.7,8.4,36.1,41.6,50.7,43.2c15.8,1.8,29.4-13.3,35.9-40.8c-9.1,11.7-12.8,17-21.8,17.6
		c-9.4,0.6-8.6,2.5-41.3-31.5s-48.2-17.7-57.9-3.3c-2.2-2.4-13.1-20.1-26.3-20C99.7,6.8,84.1,28.9,74.8,37c-9.7,8.4-15.5,9.8-19,9.9
		C50.3,46.9,43.7,44.1,38.7,28.3z"/>
	<path class="st1" d="M118.7,54.7C94,84.7,93,85.4,80.1,106.7c-13,21.3-16.4,35.5-10.3,40.8c6.1,5.3,17.1,5.6,30.4-4.3
		c18.6-14.3,43.5-34.6,50.3-52c1.8-4.5-30.5,26.1-43.5,33.6c-7.8,4.5-18.2,5.7-23.8,0.3C71.7,114.2,123,59.4,118.7,54.7L118.7,54.7z
		 M155.3,100.6c-0.1-2.4,12.5-20.9,14.6-21.6c31.4,21.1,15,75.4,4.7,80.1c0,0,1.8-23.3-2.9-37.9C167.1,106.6,155.4,103,155.3,100.6z
		 M318.7,53.5c-3-12.6,10.5-46.7,27.7-46.7c42.9,0,22.1,68.4,13.7,93.6c-20.4,52.8-33.3,131.8-34.2,138.6
		c-1.1,8.3-13.9,30.5-7.4-6.2c6.5-36.7,18.1-79.6,32.1-129.5c7.3-26.2,16.2-73-8.5-73C329.4,30.1,330.1,39,318.7,53.5z"/>
</g>
<path class="st0" d="M189,285.5c-7.4-3.7,35.6-104.4,41.5-70.5c2.7,15.2,27.2-27.4,27.2-27.4s19.3-35.1,20.2-32
	c4.5,14.5-52.3,108.6-56.4,84.9C217.5,216.5,189.8,285.9,189,285.5L189,285.5z"/>
<g transform="translate(10.063 -6.013)">
	<path class="st2" d="M174.7,262.2c-1.8,3.1-3.5,6.3-5,9.6c-2.7,5.8-4.9,11.9-6.9,18c-1.3,4.5-2.8,9.2-2.7,14c0,0.6,0.1,1.3,0.2,1.9
		c0.3,1.5,0.7,3,2.1,3.9c1.6,1.1,3.1,1.1,4.9,1.1c0.8-0.1,1.6-0.2,2.4-0.4c0.9-0.2,3.6-1.1,2.7-0.9c-4.5,1.1-8.9,2.7-13.4,3.6
		c-1.1,0.2,2.1-0.9,3.2-1.5c2.9-1.5,4.4-2.5,7.1-4.3c8.2-5.5,15.8-11.8,23.4-18c6.1-5,12.2-10,18.5-14.7c1.7-1.2,3.4-2.5,5.1-3.6
		c0.3-0.2,0.7-0.4,1-0.7c0.3-0.2,0.5-0.4,0.8-0.5c5.5-1.6,11-3,16.5-4.4c0.2,0.4,0.5,0.7,0.6,1.1c1.3,3-0.5,6.7-1.5,9.5
		c-3,7.4-6.8,14.4-10.6,21.3c-2.1,4.2-4.5,8.3-6.5,12.5c-0.9,2.1,0.3-0.3,0.1-0.3c-4.9,1-9.7,2.8-14.6,3.9c-0.8,0.2,1.4-0.7,2.1-1.1
		c0.9-0.6,1.9-1.2,2.8-1.8c8.4-5.9,16.2-12.7,24.2-19.2c3.5-2.8,7.1-5.5,10.8-8c1.6-1,3.3-2.1,5-2.9c0.6-0.3,1.2-0.5,1.8-0.7
		c5.9-1.4,11.6-3.3,17.6-4.1c0.7-0.1,0.9,1.1,1.2,1.7c1.7,3.4,1,7.9,0.6,11.5c-0.6,5.4-2.3,10.6-2.8,16c-0.1,0.6-0.1,1.3-0.1,1.9
		c0.2,0.4,0.1,0.8,0.5,1.1c0.3,0.2,0.8,0.2,1.2,0.1c0.8-0.1,3-0.8,2.2-0.6c-4.4,1.1-8.8,2.7-13.3,3.5c-1.3,0.2,2.5-1.1,3.7-1.7
		c1.5-0.8,2.9-1.6,4.3-2.5c1.5-1,3.1-1.9,4.6-3c2.5-1.6,7.2-5,9.6-6.7c4.1-2.8,8.3-5.6,12.5-8.2c1.1-0.6,2.1-1.3,3.2-1.8
		c6.3-3.3,15.3-5,21-5.9c0.7-0.1,1.2,0.8,1.6,1.4c1.3,1.6,1.4,3.1,1.9,5c0.6,3.4,0.5,6.9,0.5,10.3c0,2.1,0,4.5,0.4,6.5
		c0.2,0.9,0.6,1.9,0.9,2.8c0.6,0.7,1,1.6,1.7,2.1c3.3,2.5,8,1.7,11.7,1.1c4.5-0.8,7.5-1.7,11.9-2.9l-11.7,3.3l17.8-2.2l-22.5,6.5
		c-4.1,1-7.5,2-11.7,2.4c-4.2,0.4-8.6,0.2-11.8-2.9c-0.8-0.8-1.3-1.8-1.9-2.7c-0.3-1-0.8-2-1-3.1c-1.2-5.5,0-11.2-0.7-16.7
		c-0.2-1-0.3-2.9-1.3-3.8c-0.4-0.3-1.8-0.2-1.3-0.4c4.7-1.8,9.5-3,14.3-4.5c-0.8,0.3-1.7,0.6-2.5,1c-1,0.5-2,1.1-3,1.7
		c-4.1,2.6-8.2,5.3-12.1,8.1c-2.8,2-6.8,4.9-9.7,6.8c-1.6,1.1-3.2,2-4.8,3.1c-1.2,0.7-6.8,4.1-8.4,4.6c-6.5,2.1-13,4-19.6,5.6
		c-1.5,0.4-3-0.4-4-1.5c-0.4-0.5-0.5-1.1-0.8-1.7c0-0.7-0.1-1.4-0.1-2.1c0-1.7,0.4-3.9,0.6-5.6c0.6-3.5,1.3-6.9,1.9-10.4
		c0.4-2.8,1-5.9,0.7-8.7c-0.1-0.5-0.2-1.1-0.4-1.6c-0.2-0.3-1-0.5-0.7-0.6c4.9-1.8,9.9-3,14.8-4.5c-0.6,0.2-1.2,0.3-1.7,0.5
		c-1.6,0.6-3.2,1.7-4.7,2.7c-3.6,2.4-7.1,5.1-10.5,7.8c-8.1,6.6-16.1,13.5-24.7,19.5c-0.1,0.1-4.7,3.1-5.3,3.3
		c-5.8,1.9-11.5,3.8-17.4,5.1c-0.7,0.1-1.4-1.4-1.4-1.9c0-0.3,0.1-0.6,0.2-0.9c0.5-1.6,1.2-3,1.8-4.5c1.3-2.7,2.6-5.4,3.9-8.1
		c3.7-7,7.4-14.1,10.8-21.2c0.9-2,2-4,2.5-6.2c0-0.1,0.3-1.4,0.1-1.6c0-0.1-0.1,0.1-0.2,0.2l15.3-4.5c-0.2,0.1-0.5,0.1-0.7,0.3
		c-2,1-3.8,2.9-5.7,4.1c-6.1,4.7-12.1,9.6-18,14.6c-7.6,6.3-15.2,12.7-23.5,18.3c-2.7,1.7-4.5,3-7.3,4.5c-1.1,0.6-2.1,1.2-3.3,1.6
		c-6.4,2.1-12.9,4-19.3,5.9c-2.4,0.7-2.7,0.6-5.1,0.6c-1.7-0.3-2.3-0.3-3.8-1.2c-2.2-1.3-3.4-3.5-3.9-6c-0.3-2-0.5-2.5-0.4-4.6
		c0.1-4.1,1.3-8.1,2.4-12c2-6.2,4.3-12.3,7.1-18.2c1.6-3.4,3.3-6.8,5.5-10L174.7,262.2L174.7,262.2z M109.7,188.5
		c1,3.3,1,6.8,1.1,10.2c0,9.5-0.9,18.9-1.5,28.4c-1.1,13-1.6,26.1-2.1,39.2c-0.5,9.6-0.7,19.2-0.8,28.7c0.1,3.9-0.1,8,0.8,11.8
		c0.1,0.2,0.3,0.8,0.7,0.8c0.3-0.1,1.5-1.4,1.4-1.3C96.3,313,92,317.5,97.7,312c4.1-4.6,7.7-9.7,11.4-14.7
		c9.4-12.7-1.9,2.6,8.2-11.1c1.6-2.2,3.1-4.3,4.7-6.5c4.3-6,5.8-8.1,10.2-14.1c5.4-7.2,10.9-14.3,16.5-21.4
		c9.1-11.5,18.5-22.7,28.4-33.4c3-3.2,6-6.3,9.2-9.3l16.1-6.7c-2.6,2.8-5.1,5.6-7.6,8.5c-9.1,10.7-17.9,21.6-26.6,32.6
		c-5.6,7.1-11.1,14.2-16.5,21.3c-8,10.5-2.8,3.8-10.6,14.2c-1.7,2.2-3.3,4.5-5,6.7c-6.5,8.4-2.7,3.4-8.9,11.4
		c-4.2,5.3-8.2,10.6-12.8,15.6c-6.4,6.3-2.7,3.1-18.4,11.9c-1.4,0.8-3-0.8-3.6-1.9c-1.6-3.7-1.9-7.7-2.2-11.7
		c-0.6-9.4-0.8-18.8-0.6-28.2c0.3-13.1,0.8-26.3,2.3-39.4c1-9.7,2-19.3,3.1-29c0.2-3.5,0.5-6.9,0.3-10.4L109.7,188.5L109.7,188.5z"
		/>
	
		<ellipse transform="matrix(0.6175 -0.7866 0.7866 0.6175 -130.9555 230.6716)" class="st3" cx="171.7" cy="250" rx="9.4" ry="4.9"/>
</g>
<path class="st1" d="M193.7,280.7c-7.4-3.7,35.6-104.4,41.5-70.5c2.7,15.2,27.2-27.4,27.2-27.4s19.3-35.1,20.2-32
	c4.5,14.5-52.3,108.6-56.4,84.9C222.2,211.7,194.6,281.2,193.7,280.7L193.7,280.7z"/>
<path class="st0" d="M88.7,321.2c0,0-0.4-21.6,36.1-67.3c29.4-36.9,63.5-90,63.5-90s-5.6,28-30.4,60.1
	C128.9,261.3,88.7,321.2,88.7,321.2L88.7,321.2z"/>
<path class="st1" d="M93.5,323c0,0-0.4-21.6,36.1-67.3c29.4-36.9,63.5-90,63.5-90s-5.6,28-30.4,60C133.7,263,93.5,323,93.5,323
	L93.5,323z"/>
<g transform="translate(14 -4)">
	<path class="st4" d="M176.6,263.2c-1.8,3.1-3.5,6.3-5,9.6c-2.7,5.8-4.9,11.9-6.9,18c-1.3,4.5-2.8,9.2-2.7,14c0,0.6,0.1,1.3,0.2,1.9
		c0.3,1.5,0.7,3,2.1,3.9c1.6,1.1,3.1,1.1,4.9,1.1c0.8-0.1,1.6-0.2,2.4-0.4c0.9-0.2,3.6-1.1,2.7-0.9c-4.5,1.1-8.9,2.7-13.4,3.6
		c-1.1,0.2,2.1-0.9,3.2-1.5c2.9-1.5,4.4-2.5,7.1-4.3c8.2-5.5,15.8-11.8,23.4-18c6.1-5,12.2-10,18.5-14.7c1.7-1.2,3.4-2.5,5.1-3.6
		c0.3-0.2,0.7-0.4,1-0.7c0.3-0.2,0.5-0.4,0.8-0.5c5.5-1.6,11-3,16.5-4.4c0.2,0.4,0.5,0.7,0.6,1.1c1.3,3-0.5,6.7-1.5,9.5
		c-3,7.4-6.8,14.4-10.6,21.3c-2.1,4.2-4.5,8.3-6.5,12.5c-0.9,2.1,0.3-0.3,0.1-0.3c-4.9,1-9.7,2.8-14.6,3.9c-0.8,0.2,1.4-0.7,2.1-1.1
		c0.9-0.6,1.9-1.2,2.8-1.8c8.4-5.9,16.2-12.7,24.2-19.2c3.5-2.8,7.1-5.5,10.8-8c1.6-1,3.3-2.1,5-2.9c0.6-0.3,1.2-0.5,1.8-0.7
		c5.9-1.4,11.6-3.3,17.6-4.1c0.7-0.1,0.9,1.1,1.2,1.7c1.7,3.4,1,7.9,0.6,11.5c-0.6,5.4-2.3,10.6-2.8,16c-0.1,0.6-0.1,1.3-0.1,1.9
		c0.2,0.4,0.1,0.8,0.5,1.1c0.3,0.2,0.8,0.2,1.2,0.1c0.8-0.1,3-0.8,2.2-0.6c-4.4,1.1-8.8,2.7-13.3,3.5c-1.3,0.2,2.5-1.1,3.7-1.7
		c1.5-0.8,2.9-1.6,4.3-2.5c1.5-1,3.1-1.9,4.6-3c2.5-1.6,7.2-5,9.6-6.7c4.1-2.8,8.3-5.6,12.5-8.2c1.1-0.6,2.1-1.3,3.2-1.8
		c6.3-3.3,15.3-5,21-5.9c0.7-0.1,1.2,0.8,1.6,1.4c1.3,1.6,1.4,3.1,1.9,5c0.6,3.4,0.5,6.9,0.5,10.3c0,2.1,0,4.5,0.4,6.5
		c0.2,0.9,0.6,1.9,0.9,2.8c0.6,0.7,1,1.6,1.7,2.1c3.3,2.5,8,1.7,11.7,1.1c4.5-0.8,7.5-1.7,11.9-2.9l-11.7,3.3l17.8-2.2l-22.5,6.5
		c-4.1,1-7.5,2-11.7,2.4c-4.2,0.4-8.6,0.2-11.8-2.9c-0.8-0.8-1.3-1.8-1.9-2.7c-0.3-1-0.8-2-1-3.1c-1.2-5.5,0-11.2-0.7-16.7
		c-0.2-1-0.3-2.9-1.3-3.8c-0.4-0.3-1.8-0.2-1.3-0.4c4.7-1.8,9.5-3,14.3-4.5c-0.8,0.3-1.7,0.6-2.5,1c-1,0.5-2,1.1-3,1.7
		c-4.1,2.6-8.2,5.3-12.1,8.1c-2.8,2-6.8,4.9-9.7,6.8c-1.6,1.1-3.2,2-4.8,3.1c-1.2,0.7-6.8,4.1-8.4,4.6c-6.5,2.1-13,4-19.6,5.6
		c-1.5,0.4-3-0.4-4-1.5c-0.4-0.5-0.5-1.1-0.8-1.7c0-0.7-0.1-1.4-0.1-2.1c0-1.7,0.4-3.9,0.6-5.6c0.6-3.5,1.3-6.9,1.9-10.4
		c0.4-2.8,1-5.9,0.7-8.7c-0.1-0.5-0.2-1.1-0.4-1.6c-0.2-0.3-1-0.5-0.7-0.6c4.9-1.8,9.9-3,14.8-4.5c-0.6,0.2-1.2,0.3-1.7,0.5
		c-1.6,0.6-3.2,1.7-4.7,2.7c-3.6,2.4-7.1,5.1-10.5,7.8c-8.1,6.6-16.1,13.5-24.7,19.5c-0.1,0.1-4.7,3.1-5.3,3.3
		c-5.8,1.9-11.5,3.8-17.4,5.1c-0.7,0.1-1.4-1.4-1.4-1.9c0-0.3,0.1-0.6,0.2-0.9c0.5-1.6,1.2-3,1.8-4.5c1.3-2.7,2.6-5.4,3.9-8.1
		c3.7-7,7.4-14.1,10.8-21.2c0.9-2,2-4,2.5-6.2c0-0.1,0.3-1.4,0.1-1.6c0-0.1-0.1,0.1-0.2,0.2l15.3-4.5c-0.2,0.1-0.5,0.1-0.7,0.3
		c-2,1-3.8,2.9-5.7,4.1c-6.1,4.7-12.1,9.6-18,14.6c-7.6,6.3-15.2,12.7-23.5,18.3c-2.7,1.7-4.5,3-7.3,4.5c-1.1,0.6-2.1,1.2-3.3,1.6
		c-6.4,2.1-12.9,4-19.3,5.9c-2.4,0.7-2.7,0.6-5.1,0.6c-1.7-0.3-2.3-0.3-3.8-1.2c-2.2-1.3-3.4-3.5-3.9-6c-0.3-2-0.5-2.5-0.4-4.6
		c0.1-4.1,1.3-8.1,2.4-12c2-6.2,4.3-12.3,7.1-18.2c1.6-3.4,3.3-6.8,5.5-10L176.6,263.2L176.6,263.2z M111.5,189.5
		c1,3.3,1,6.8,1.1,10.2c0,9.5-0.9,18.9-1.5,28.4c-1.1,13-1.6,26.1-2.1,39.2c-0.5,9.6-0.7,19.2-0.8,28.7c0.1,3.9-0.1,8,0.8,11.8
		c0.1,0.2,0.3,0.8,0.7,0.8c0.3-0.1,1.5-1.4,1.4-1.3c-12.9,6.7-17.1,11.2-11.5,5.7c4.1-4.6,7.7-9.7,11.4-14.7
		c9.4-12.7-1.9,2.6,8.2-11.1c1.6-2.2,3.1-4.3,4.7-6.5c4.3-6,5.8-8.1,10.2-14.1c5.4-7.2,10.9-14.3,16.5-21.4
		c9.1-11.5,18.5-22.7,28.4-33.4c3-3.2,6-6.3,9.2-9.3l16.1-6.7c-2.6,2.8-5.1,5.6-7.6,8.5c-9.1,10.7-17.9,21.6-26.6,32.6
		c-5.6,7.1-11.1,14.2-16.5,21.3c-8,10.5-2.8,3.8-10.6,14.2c-1.7,2.2-3.3,4.5-5,6.7c-6.5,8.4-2.7,3.4-8.9,11.4
		c-4.2,5.3-8.2,10.6-12.8,15.6c-6.4,6.3-2.7,3.1-18.4,11.9c-1.4,0.8-3-0.8-3.6-1.9c-1.6-3.7-1.9-7.7-2.2-11.7
		c-0.6-9.4-0.8-18.8-0.6-28.2c0.3-13.1,0.8-26.3,2.3-39.4c1-9.7,2-19.3,3.1-29c0.2-3.5,0.5-6.9,0.3-10.4L111.5,189.5L111.5,189.5z"
		/>
	
		<ellipse transform="matrix(0.6175 -0.7866 0.7866 0.6175 -130.9925 232.5167)" class="st5" cx="173.6" cy="250.9" rx="9.4" ry="4.9"/>
</g>
</svg>
