<svg xmlns="http://www.w3.org/2000/svg" xml:space="preserve" width="800.12" height="157.16"><path d="M112.096 143.136v-42.068h14.022v56.092H0v-56.092h14.022v42.068h98.074" style="fill:#bcbbbc;fill-opacity:1;fill-rule:nonzero;stroke:none;stroke-width:.13333333"/><path d="M28.06 129.112h70.109V115.09h-70.11Z" style="fill:#31aa52;fill-opacity:1;fill-rule:nonzero;stroke:none;stroke-width:.13333333"/><path d="M90.895.001 79.644 8.37l41.842 56.256 11.25-8.369Z" style="fill:#4086f4;fill-opacity:1;fill-rule:nonzero;stroke:none;stroke-width:.13333333"/><path d="m56.117 33.167 53.873 44.867 8.974-10.775L65.09 22.392Z" style="fill:#eb4133;fill-opacity:1;fill-rule:nonzero;stroke:none;stroke-width:.13333333"/><path d="m38.53 64.346 63.555 29.6 5.92-12.711-63.556-29.6Z" style="fill:#fbbd02;fill-opacity:1;fill-rule:nonzero;stroke:none;stroke-width:.13333333"/><path d="m29.452 97.199 68.61 14.42 2.884-13.723-68.61-14.42L29.451 97.2" style="fill:#4086f4;fill-opacity:1;fill-rule:nonzero;stroke:none;stroke-width:.13333333"/><g aria-label="googlesearch" style="font-style:normal;font-weight:400;font-size:40px;line-height:125%;font-family:Sans;letter-spacing:0;word-spacing:0;fill:#212325;fill-opacity:1;stroke:none;stroke-width:1px;stroke-linecap:butt;stroke-linejoin:miter;stroke-opacity:1"><path d="M170.42 57.89q11.777 0 17.813 10.195l.761-9.14h5.332v56.308q0 11.133-6.093 17.461-6.094 6.329-16.934 6.329-4.219 0-8.848-.997-4.629-.996-8.027-2.753l1.582-5.333q6.914 3.458 15.176 3.458 8.261 0 12.539-4.747 4.277-4.687 4.277-13.418v-7.148q-6.152 9.023-17.695 9.023-10.254 0-16.113-7.558-5.86-7.617-5.86-20.508l.059-1.113q0-13.828 5.86-21.914 5.859-8.145 16.171-8.145zm-15.762 30.117v1.055q0 10.547 4.278 16.582 4.277 6.035 12.48 6.035 11.777 0 16.524-10.488V74.707q-4.688-11.309-16.407-11.309-8.144 0-12.539 6.68-4.336 6.68-4.336 17.93zM213.78 84.257v1.7q0 10.312 5.097 16.875 5.098 6.562 13.828 6.562t13.828-6.562q5.098-6.622 5.098-16.875v-1.7q0-10.078-5.156-16.699-5.157-6.68-13.828-6.68-8.672 0-13.77 6.622-5.098 6.62-5.098 16.757zm-6.329 1.7v-1.7q0-12.773 6.914-20.742 6.914-8.027 18.282-8.027 11.367 0 18.28 8.027 6.974 7.969 6.974 20.742v1.7q0 12.773-6.915 20.8-6.855 7.97-18.28 7.97-11.427 0-18.34-7.97-6.915-7.968-6.915-20.8zM273.897 84.257v1.7q0 10.312 5.097 16.875 5.098 6.562 13.828 6.562t13.829-6.562q5.097-6.622 5.097-16.875v-1.7q0-10.078-5.156-16.699-5.156-6.68-13.828-6.68t-13.77 6.622q-5.097 6.62-5.097 16.757zm-6.329 1.7v-1.7q0-12.773 6.915-20.742 6.914-8.027 18.28-8.027 11.368 0 18.282 8.027 6.973 7.969 6.973 20.742v1.7q0 12.773-6.914 20.8-6.856 7.97-18.282 7.97-11.425 0-18.34-7.97-6.914-7.968-6.914-20.8zM350.83 57.89q11.778 0 17.813 10.195l.761-9.14h5.332v56.308q0 11.133-6.093 17.461-6.094 6.329-16.934 6.329-4.219 0-8.848-.997-4.628-.996-8.027-2.753l1.582-5.333q6.914 3.458 15.176 3.458t12.539-4.747q4.277-4.687 4.277-13.418v-7.148q-6.152 9.023-17.695 9.023-10.254 0-16.113-7.558-5.86-7.617-5.86-20.508l.059-1.113q0-13.828 5.86-21.914 5.859-8.145 16.171-8.145zm-15.762 30.117v1.055q0 10.547 4.278 16.582 4.277 6.035 12.48 6.035 11.778 0 16.524-10.488V74.707q-4.688-11.309-16.407-11.309-8.144 0-12.539 6.68-4.336 6.68-4.336 17.93zM398.467 31.23v82.266h-6.27V31.23ZM452.783 78.34q0-7.618-4.394-12.54-4.395-4.922-11.602-4.922-7.207 0-12.011 5.274-4.747 5.273-5.508 13.476l.117.293h33.398zm-15.41 36.386q-10.781 0-17.87-7.91-7.032-7.91-7.032-20.04v-2.929q0-12.187 6.972-20.273 6.973-8.086 17.286-8.086 10.312 0 16.289 6.62 6.035 6.563 6.035 17.755v5.39h-40.254v1.524q0 9.844 5.098 16.23 5.156 6.387 13.476 6.387 11.133 0 17.168-6.328l2.695 4.336q-7.148 7.324-19.863 7.324z" style="font-style:normal;font-variant:normal;font-weight:300;font-stretch:normal;font-size:120px;font-family:Yantramanav;-inkscape-font-specification:&quot;Yantramanav, Light&quot;;font-variant-ligatures:normal;font-variant-caps:normal;font-variant-numeric:normal;font-feature-settings:normal;text-align:start;writing-mode:lr-tb;text-anchor:start;fill:#212325;fill-opacity:1" transform="translate(6 8)"/><path d="M495.28 104.18v.175q4.218 0 6.445-1.64 2.285-1.7 2.285-4.512 0-2.813-2.578-4.57-2.52-1.817-8.965-3.282-10.43-2.11-15.41-6.152-4.98-4.043-4.98-11.25 0-7.266 6.21-12.305 6.27-5.039 16.817-5.039 10.605 0 17.05 5.098 6.504 5.039 6.211 12.949l-.117.293h-14.883q0-3.516-2.226-5.625-2.227-2.11-6.153-2.11-3.867 0-6.035 1.817-2.168 1.758-2.168 4.57 0 2.813 2.344 4.453 2.344 1.582 8.965 2.813 10.781 2.168 15.762 6.27 5.039 4.1 5.039 11.542 0 7.383-6.621 12.246-6.563 4.805-17.52 4.805t-17.754-5.566q-6.738-5.625-6.387-13.36l.059-.351h14.121q.234 8.73 10.488 8.73zM561.96 78.164q0-5.04-2.345-7.852-2.285-2.871-6.68-2.871-4.394 0-6.913 3.164-2.52 3.164-3.106 8.672l.176.293h18.867zm-7.794 36.62q-12.305 0-19.746-7.792-7.383-7.793-7.383-20.215v-2.11q0-8.496 3.106-15.117 3.164-6.62 9.023-10.312 5.918-3.75 13.652-3.75 11.485 0 17.872 6.914 6.386 6.855 6.386 18.867v8.379h-34.043l-.117.352q.41 5.8 3.809 9.375 3.398 3.515 8.672 3.515 5.273 0 8.613-.937 3.34-.996 7.617-3.34l4.16 9.492v.059q-3.691 3.046-9.316 4.863-5.567 1.758-12.305 1.758zM601.744 114.726q-8.906 0-13.77-4.57-4.863-4.57-4.863-12.832 0-8.32 6.446-12.832 6.445-4.57 18.867-4.57h8.555V75.41q0-4.219-2.168-6.446-2.168-2.226-6.153-2.226-3.925 0-5.976 1.816-2.051 1.817-2.051 5.04l-14.883-.06v-.292q-.41-7.442 6.27-12.598 6.738-5.156 17.285-5.156 10.605 0 16.875 5.273 6.27 5.274 6.27 14.707v23.614q0 7.675 2.519 14.53h-15.41q-1.875-4.335-2.285-8.554-5.625 9.668-15.528 9.668zm-3.398-17.695h.058q0 2.87 1.875 4.629 1.934 1.699 5.508 1.699 3.633 0 6.797-1.934 3.164-1.992 4.336-4.746v-8.086h-8.555q-4.804 0-7.441 2.403-2.578 2.343-2.578 6.035zM659.4 113.496H644.05v-57.07h14.297l.644 8.437q4.395-9.492 12.598-9.492 1.992 0 4.102.644l-1.641 13.653-5.625-.176q-6.504 0-9.023 5.449zM693.62 84.375v1.64q0 16.934 11.132 16.934 4.16 0 6.621-2.403 2.461-2.402 2.461-6.386h14.004l.117.293q.235 8.672-6.445 14.53-6.68 5.802-16.758 5.802-12.539 0-19.57-7.852-6.973-7.91-6.973-20.918v-1.582q0-13.008 6.973-20.918 7.031-7.969 19.57-7.969 10.606 0 16.992 6.036 6.446 5.976 6.211 15.82l-.058.293h-14.063q0-4.512-2.46-7.383-2.462-2.93-6.622-2.93-11.133 0-11.133 16.993zM751.627 63.632q5.8-8.261 15.117-8.261 9.375 0 14.297 6.035 4.98 6.035 4.98 18.222v33.868h-15.41V79.51q0-6.504-2.285-9.316-2.285-2.871-7.031-2.871-6.21 0-9.55 4.336v41.836h-15.352V31.23h15.351z" style="font-style:normal;font-variant:normal;font-weight:700;font-stretch:normal;font-size:120px;font-family:Yantramanav;-inkscape-font-specification:&quot;Yantramanav, Bold&quot;;font-variant-ligatures:normal;font-variant-caps:normal;font-variant-numeric:normal;font-feature-settings:normal;text-align:start;writing-mode:lr-tb;text-anchor:start;fill:#212325;fill-opacity:1" transform="translate(6 8)"/></g></svg>