<?xml version="1.0" encoding="utf-8"?>
<!-- Generator: Adobe Illustrator 24.1.2, SVG Export Plug-In . SVG Version: 6.00 Build 0)  -->
<svg version="1.1" id="Layer_1" xmlns="http://www.w3.org/2000/svg" xmlns:xlink="http://www.w3.org/1999/xlink" x="0px" y="0px"
	 viewBox="0 0 810.7 345.3" style="enable-background:new 0 0 810.7 345.3;" xml:space="preserve">
<style type="text/css">
	.st0{fill:#FFFFFF;}
	.st1{fill:none;}
	.st2{fill:#231F20;}
	.st3{fill:#FF9300;}
</style>
<rect x="70" y="46.4" class="st0" width="270" height="235.2"/>
<path class="st1" d="z"/>
<path class="st2" d="M0,172.7v172.7h810.7V0H0V172.7z M742.4,60c4.4,2,6.3,3.9,8.3,8.3c2.5,5.5,2.7,9.5,2.7,104.4
	s-0.1,98.9-2.7,104.4c-2,4.4-3.9,6.3-8.3,8.3c-5.6,2.5-10.3,2.7-184.4,2.7s-178.8-0.1-184.4-2.7c-4.4-2-6.3-3.9-8.3-8.3
	c-2.5-5.5-2.7-9.5-2.7-104.4s0.1-98.9,2.7-104.4c2-4.4,3.9-6.3,8.3-8.3c5.6-2.5,10.3-2.7,184.4-2.7S736.8,57.5,742.4,60z
	 M170.3,100.5c16.9,4.5,29.9,14.5,36.3,27.9c2.1,4.5,4.3,10.3,4.7,12.5l0.8,4.4h-28l-2.1-5.3c-2.7-6.5-10.7-13.7-17.7-15.7
	c-6.5-2-17.7-2-24.4,0c-7.2,2.1-16.3,10.5-20.3,18.8c-9.1,18.5-7.3,49.9,3.5,62.8c8.8,10.7,25.7,15.6,40.3,11.5
	c10.1-2.8,20.1-13.6,22.7-24.4l0.8-3.6h-32v-24H212V240h-9.2c-9.2,0-9.2,0-10-4c-0.4-2.1-1.2-5.9-1.6-8c-0.4-2.3-0.9-4-1.1-4
	c-0.1,0-3.2,2.7-6.7,6c-8.3,7.6-15.9,11.2-27.6,12.9c-19.9,2.9-39.5-3.7-52.9-18.1c-9.2-9.9-14-19.3-16.8-33.1
	c-8.9-43.1,10.5-81.5,46.3-91.1C141.5,98.3,161.5,98.1,170.3,100.5L170.3,100.5z M265.3,113.3v12h-26.7v-24h26.7V113.3z
	 M321.3,124.7v14h16v18.7h-16v29.9c0,34.1,0,34.1,10.1,34.1h5.9v20.4l-14.3-0.7c-15.7-0.7-21.3-2.5-25.3-8.7
	c-2.1-3.2-2.4-7.9-2.8-39.3l-0.4-35.7h-14.7l0.4-9.1l0.4-8.9l7.1-0.4l6.9-0.4v-27.9h26.7V124.7z M265.3,188.7V240h-26.7V137.3h26.7
	V188.7z"/>
<path class="st3" d="M373.6,60c-4.4,2-6.3,3.9-8.3,8.3c-2.5,5.5-2.7,9.5-2.7,104.4s0.1,98.9,2.7,104.4c2,4.4,3.9,6.3,8.3,8.3
	c5.6,2.5,10.3,2.7,184.4,2.7s178.8-0.1,184.4-2.7c4.4-2,6.3-3.9,8.3-8.3c2.5-5.5,2.7-9.5,2.7-104.4s-0.1-98.9-2.7-104.4
	c-2-4.4-3.9-6.3-8.3-8.3c-5.6-2.5-10.3-2.7-184.4-2.7S379.2,57.5,373.6,60z"/>
<path d="M394.3,100.8c-0.5,0.5-0.9,31.7-0.9,69.5v68.4h28v-32.4c0-30.9,0.1-32.7,3.1-38.3c4.3-8.4,8.5-11.1,17.6-11.1
	c6.3,0,8.1,0.5,10.9,3.3c4.9,4.9,5.7,10.8,5.7,46v32.4h28V202c0-40.3-0.8-47.1-6.8-55.3c-11.5-15.9-42.8-17.2-55.2-2.5l-3.3,4
	l-0.3-23.7l-0.4-23.7l-12.7-0.4C400.9,100.1,394.8,100.3,394.3,100.8z M510.9,176.9c0.4,45.7,0.7,46.7,10.1,55.9
	c6.1,5.9,12.1,7.9,24.9,7.9c11.9,0,18.3-2.5,25.9-10l4.1-4.3v12.3h26.7V136h-27.9l-0.4,35.1l-0.4,35.2l-3.6,4.7
	c-6.5,8.7-20.5,10.1-27.6,3.2l-3.5-3.5l-0.7-37.1l-0.7-36.9l-13.7,0.1l-13.7-0.4l0.4,41.1L510.9,176.9z M627.6,100.9
	c-0.5,0.4-0.9,31.6-0.9,69.3v68.4h28v-11.1l2.9,3.7c7.1,8.9,26,12.7,40.1,7.9c27.9-9.5,38.7-59.2,19.2-88
	c-7.7-11.5-18.7-16.9-34.4-16.8c-10,0-16.8,2.8-23.6,9.7l-4.3,4.4V100h-13.1C634.4,100,628,100.4,627.6,100.9z M686.7,160.7
	c5.6,2.8,9.1,9.7,10.7,20.4c2,14.7-0.9,26.4-8.5,33.5c-2.7,2.5-5.3,3.5-11.2,3.9c-9.7,0.7-15.5-2.8-20.3-12.4
	c-2.8-5.6-3.3-8.4-3.2-18c0.3-20.3,6.9-29.3,21.6-29.3C679.6,158.7,684.5,159.6,686.7,160.7z"/>
<path class="st1" d="z"/>
</svg>
