<?xml version="1.0" encoding="utf-8"?>
<!-- Generator: Adobe Illustrator 24.1.2, SVG Export Plug-In . SVG Version: 6.00 Build 0)  -->
<svg version="1.1" id="layer" xmlns="http://www.w3.org/2000/svg" xmlns:xlink="http://www.w3.org/1999/xlink" x="0px" y="0px"
	 viewBox="0 0 382.7 292.9" style="enable-background:new 0 0 382.7 292.9;" xml:space="preserve">
<style type="text/css">
	.st0{fill:#24292E;}
	.st1{fill-rule:evenodd;clip-rule:evenodd;fill:#24292E;}
</style>
<path class="st0" d="M173.1,267.4h-0.2c0.1,0,0.1,0.1,0.2,0.1h0.1L173.1,267.4z M173.1,267.5c-0.8,0-2.9,0.4-5.1,0.4
	c-6.9,0-9.3-3.2-9.3-7.4v-27.8h14.1c0.8,0,1.4-0.7,1.4-1.7v-15.1c0-0.8-0.7-1.5-1.4-1.5h-14.1v-18.8c0-0.7-0.5-1.1-1.3-1.1h-19.2
	c-0.8,0-1.2,0.5-1.2,1.1v19.3c0,0-9.7,2.4-10.3,2.5c-0.7,0.2-1.1,0.8-1.1,1.5V231c0,1,0.7,1.7,1.5,1.7h9.8v29.2
	c0,21.7,15.1,23.9,25.4,23.9c4.7,0,10.4-1.5,11.3-2c0.5-0.2,0.8-0.8,0.8-1.4v-13.3C174.4,268.3,173.9,267.7,173.1,267.5L173.1,267.5
	z M117.2,214.4H98.3c-0.8,0-1.5,0.8-1.5,1.8v65.2c0,1.8,1.2,2.4,2.7,2.4h17.1c1.8,0,2.2-0.8,2.2-2.4v-65.5
	C118.7,215.1,118,214.4,117.2,214.4L117.2,214.4z M107.8,184.3c-6.8,0-12.3,5.4-12.3,12.3c0,6.8,5.4,12.3,12.3,12.3
	c6.7,0,12.1-5.4,12.1-12.3C119.9,189.8,114.5,184.3,107.8,184.3L107.8,184.3z M86.7,225.8v51c0,0.3-0.1,1-0.5,1.1
	c0,0-11.1,7.9-29.4,7.9c-22.1,0-48.4-6.9-48.4-52.6s22.9-55.1,45.3-55c19.4,0,27.2,4.4,28.4,5.2c0.3,0.5,0.5,0.8,0.5,1.2L79,200.5
	c0,0.8-0.8,1.8-1.8,1.5c-3.2-1-8-2.9-19.3-2.9c-13.1,0-27.1,3.7-27.1,33.2c0,29.4,13.3,32.9,22.9,32.9c8.2,0,11.1-1,11.1-1v-20.4
	H51.7c-1,0-1.7-0.7-1.7-1.5v-16.4c0-0.8,0.7-1.5,1.7-1.5H85C86,224.3,86.7,225,86.7,225.8L86.7,225.8z"/>
<path class="st1" d="M193.7,5.1c-46.1,0-83.5,37.4-83.5,83.5c0,36.9,23.9,68.2,57.1,79.2c4.2,0.7,5.8-1.8,5.8-3.9
	c0-2-0.1-8.5-0.1-15.6c-20.9,3.8-26.4-5.2-28.1-9.8c-1-2.4-5-9.9-8.5-11.8c-3-1.5-7.1-5.5-0.1-5.6c6.6-0.1,11.3,6,12.8,8.5
	c7.6,12.6,19.5,9.1,24.3,6.9c0.8-5.4,3-9.1,5.4-11.2c-18.5-2.1-38-9.3-38-41.2c0-9.1,3.3-16.7,8.5-22.5c-0.9-2.1-3.7-10.6,0.9-22.1
	c0,0,7-2.2,23,8.5c6.7-1.9,13.8-2.8,20.8-2.8c7.1,0,14.1,1,20.8,2.8c16-10.9,22.9-8.5,22.9-8.5c4.6,11.5,1.6,20.1,0.9,22.1
	c5.4,5.8,8.5,13.3,8.5,22.5c0,32-19.5,39.1-38.1,41.2c3.1,2.6,5.7,7.6,5.7,15.5c0,11.2-0.1,20.2-0.1,22.9c0,2.2,1.5,4.8,5.7,3.9
	c34-11.5,56.9-43.4,56.9-79.2C277.2,42.5,239.8,5.1,193.7,5.1L193.7,5.1z"/>
<path class="st0" d="M182.8,283.8V183h20.8v81.3h32.2v19.5H182.8z"/>
<path class="st0" d="M242.8,263.1c0-12,7.4-19.1,22.3-21.1c3.3-0.5,8.4-1,15.2-1.7V239c0-3.5-0.9-6-2.6-7.4
	c-1.7-1.4-4.6-2.1-8.6-2.1c-2.6,0-5.5,0.5-8.6,1.4c-3.1,0.9-5.6,1.9-7.4,2.8l-2.7,1.5l-3.2-18.3c8.6-4.6,17.4-6.9,26.5-6.9
	c8.5,0,15,2.1,19.5,6.4c4.5,4.3,6.7,10.5,6.7,18.5v48.9h-15.7l-3-6c-4.4,4.9-10.3,7.4-17.7,7.4C249.7,285.2,242.8,277.9,242.8,263.1
	z M271.4,254c-3.1,0.4-5.2,1.2-6.6,2.5c-1.3,1.3-2,3.2-2,5.7c0,5.2,2.5,7.8,7.6,7.8c2.8,0,5.2-1.2,7.1-3.6c1.9-2.4,2.9-5.5,2.9-9.1
	v-4.6C276.9,253.1,274,253.6,271.4,254z"/>
<path class="st0" d="M327.9,283.8h-17.5V183H330v35.6c4.3-5.7,10.2-8.5,17.6-8.5c9.2,0,15.9,3,20.1,9c4.3,6,6.4,15.5,6.4,28.7
	c0,13.1-2.1,22.6-6.4,28.6c-4.3,6-11,9-20.1,9c-7.7,0-13.7-2.8-18.1-8.3L327.9,283.8z M330,239.7v17.6c1.6,6.1,5.6,9.1,12,9.1
	c4.2,0,7.3-1.5,9.1-4.4c1.9-2.9,2.8-7.7,2.8-14.4c0-6.6-0.9-11.4-2.8-14.4c-1.9-3-4.9-4.5-9.1-4.5
	C335.7,228.8,331.7,232.5,330,239.7z"/>
</svg>
