<?xml version="1.0" encoding="utf-8"?>
<!-- Generator: Adobe Illustrator 24.1.2, SVG Export Plug-In . SVG Version: 6.00 Build 0)  -->
<svg version="1.1" id="Layer_1" xmlns="http://www.w3.org/2000/svg" xmlns:xlink="http://www.w3.org/1999/xlink" x="0px" y="0px"
	 viewBox="0 0 861.5 300.4" style="enable-background:new 0 0 861.5 300.4;" xml:space="preserve">
<style type="text/css">
	.st0{fill:#414044;}
	.st1{fill:#C0BDBA;}
	.st2{fill:url(#SVGID_1_);}
	.st3{fill:url(#SVGID_2_);}
	.st4{fill:url(#SVGID_3_);}
</style>
<path class="st0" d="M172,240.8c-2.8,0-4.1-0.9-4.1-2.4c0-0.9,0.4-1.5,1.1-2c0.9-0.4,2.2-0.9,3.7-1.5c3.1-0.9,5.2-2,6.8-2.6
	c1.5-0.9,2.4-2.6,2.4-5.2v-44.9c0-4.4-0.7-7.9-1.7-10.5c-0.9-2.6-3.1-4.1-6.3-4.6c-1.3-0.2-2-1.1-2-2.6c0-1.3,0.7-2.2,1.7-2.6
	c3.7-0.9,6.8-2,8.9-2.8c2.2-1.1,4.8-2.6,7.9-4.8l4.6-3.1c0.2,0,0.4-0.2,0.7-0.4c0.4-0.2,0.9-0.4,1.3-0.4c0.2,0,0.7,0.2,0.9,0.4
	c0.2,0.2,0.4,0.7,0.4,1.1l-0.4,4.4c-0.2,1.3-0.2,2.8-0.4,4.1c-0.2,1.5-0.2,3.1-0.2,4.8c0,1.3,0.2,2.2,0.4,2.6h0.2
	c9.6-9.4,20.5-14,32.7-14c5.2,0,9.4,1.1,12.9,3.3c3.5,2.2,6.1,5.9,8.1,11.1h0.7c10.9-9.6,22.3-14.4,34-14.4c6.3,0,11.6,2.8,15.3,8.7
	c3.7,5.7,5.7,12.4,5.7,20.3V227c0,2.6,0.7,4.4,2.2,5.2c1.5,0.9,3.9,1.7,7,2.6c1.7,0.7,2.8,1.1,3.5,1.5c0.9,0.4,1.3,1.1,1.3,2
	c0,0.9-0.4,1.3-1.1,1.7c-0.7,0.4-1.5,0.7-3.1,0.7c-3.7,0-6.8-0.2-8.7-0.7c-2.6-0.2-5.2-0.4-7.9-0.4c-2.6,0-5.2,0.2-7.9,0.4
	c-2.6,0.4-5.7,0.7-9.4,0.7c-2.8,0-4.1-0.9-4.1-2.4c0-0.9,0.4-1.7,1.1-2.2c0.9-0.4,2.2-0.9,3.7-1.3c2.8-0.7,5.2-1.5,6.8-2.6
	c1.5-1.1,2.4-2.8,2.4-5.5v-43.6c0-5.2-1.7-9.8-5-13.7c-3.3-4.1-7.2-6.1-11.8-6.1c-7.4,0-13.5,2-18.3,5.7c-3.9,3.1-5.9,8.1-5.9,15.1
	v43c0,2.6,0.9,4.4,2.6,5.5c1.7,0.9,3.9,1.7,7,2.6c3.3,0.7,4.8,1.7,4.8,3.3c0,1.5-1.3,2.4-4.1,2.4c-3.7,0-6.8-0.2-9.2-0.7
	c-2.6-0.2-5.2-0.4-7.9-0.4c-2.6,0-5.2,0.2-7.9,0.4c-2.6,0.4-5.7,0.7-9.4,0.7c-2.8,0-4.1-0.9-4.1-2.4c0-0.9,0.2-1.3,0.9-1.7
	s1.3-0.9,2.2-1.1l2-0.7c3.3-0.9,5.5-2,7-2.6c1.5-0.9,2.4-2.6,2.4-5.2v-43.9c0-5.2-1.7-9.8-5-13.7c-3.3-4.1-7.2-6.1-11.8-6.1
	c-7.4,0-13.5,2-18.3,5.7c-3.7,2.8-5.7,7.9-5.7,15.1v43c0,2.6,0.7,4.4,2.2,5.2c1.5,0.9,3.9,1.7,7,2.6l2,0.7c0.9,0.2,1.7,0.7,2.2,1.1
	c0.4,0.4,0.9,1.1,0.9,1.7c0,1.5-1.3,2.4-4.1,2.4c-3.7,0-6.5-0.2-8.9-0.7c-2.6-0.2-5.2-0.4-7.9-0.4c-2.2,0-4.8,0.2-7.9,0.4
	C178.7,240.5,175.9,240.8,172,240.8L172,240.8z M330.8,299.9c-3.1,0-5.7-0.7-7.9-2.2c-2-1.3-2.8-3.5-2.8-6.5c0-2.6,0.7-4.8,2-6.8
	c1.3-2,2.8-2.6,5-2.6c1.1,0,2.6,0.2,4.4,0.7c2,0.4,3.3,0.7,3.9,0.7c1.7,0,3.1-0.9,3.9-2.4c2.6-4.1,5.7-9.4,8.7-16.1
	c3.3-7,6.3-14,8.9-21.2c0.4-1.3,0.7-2.8,0.7-4.8c0-2.6-0.2-4.6-0.9-6.1l-24.2-61.3c-2.4-5.7-5.5-9.2-9.4-10.3
	c-1.7-0.7-2.8-1.1-3.7-1.5c-0.7-0.7-1.1-1.3-1.1-2.4c0-1.3,1.3-2,4.1-2c3.7,0,6.3,0.2,8.1,0.7c2.6,0.2,4.8,0.4,7.2,0.4
	s4.8-0.2,7.4-0.4c2.2-0.4,5-0.7,8.5-0.7c0.9,0,2,0.2,2.6,0.7c0.9,0.4,1.5,0.9,1.5,1.7s-0.7,2-2.2,2.6c-1.3,0.9-2.6,1.5-3.9,2
	c-1.5,0.4-2.6,1.1-3.3,2.4c-0.7,0.9-0.9,2.4-0.9,4.4c0,1.3,0.7,3.3,1.7,5.9l17,41.9c0.2,0.9,0.7,1.3,1.3,1.3c0.4,0,0.9-0.4,1.1-1.3
	l14.4-38.4c0.4-0.9,0.9-2.2,1.1-3.7c0.4-1.7,0.7-3.1,0.7-3.9c0-2.4-0.4-4.1-1.1-5.2c-0.7-1.3-1.7-2.2-3.1-2.6
	c-4.1-1.7-6.1-3.5-6.1-5c0-0.7,0.4-1.3,1.3-1.7c0.9-0.4,2-0.7,2.8-0.7c0.7,0,2.4,0.2,4.8,0.4c5,0.4,8.3,0.7,10,0.7
	c2,0,4.6-0.2,7.9-0.7c1.7-0.2,3.1-0.4,4.4-0.4c2.8,0,4.1,0.7,4.1,2c0,0.9-0.4,1.7-1.3,2.4c-0.7,0.4-2,0.9-3.5,1.5
	c-2.2,0.7-4.4,2.4-6.8,5s-4.4,5.7-5.7,8.9l-28.6,67.8l-3.1,7.9c-8.7,20.9-14.4,34.5-17,40.6c-1.3,2.8-3.1,4.8-5.5,6.3
	C336.7,299,333.9,299.9,330.8,299.9L330.8,299.9z"/>
<path class="st1" d="M469.1,243.2c-12,0-22.3-3.3-30.8-9.6c-1.7-1.5-2.8-3.1-3.1-4.4c-1.5-4.4-2.4-12.9-2.6-24.9
	c0-0.9,0.4-1.7,1.1-2.2c0.9-0.7,2-0.9,3.1-0.9c2,0,3.3,0.9,3.7,2.6c2.8,10.3,7,18.1,12.7,23.6c5.7,5.5,12,8.1,19,8.1
	c7,0,12.7-2.2,16.8-6.8c4.4-4.4,6.5-10,6.5-17c0-5-0.9-9.2-2.6-12.7c-1.7-3.5-4.1-6.5-7.2-8.7c-3.1-2.6-7.6-5.7-13.7-9.2
	c-8.3-5-14.8-9.2-19-12.2s-7.9-7-11.1-11.8c-3.3-4.8-4.8-10.7-4.8-17.5c0-7.4,1.7-14,5.5-19.9c3.7-6.1,8.9-10.7,15.7-14
	c7-3.3,15.1-5,24.4-5c8.1,0,15.9,1.5,23.6,4.8c2.4,0.9,3.9,2.8,4.8,5.7c2.4,9.6,3.5,16.8,3.5,22.3c0,0.7-0.4,1.3-1.1,1.7
	s-1.3,0.7-2.4,0.7c-1.3,0-2.4-0.2-3.5-0.9c-1.1-0.7-1.7-1.3-2.2-2.2c-2.8-7.9-6.3-14-10.7-17.9c-4.1-4.1-9.4-6.1-15.3-6.1
	c-6.8,0-12.4,1.7-16.6,5.5c-4.1,3.7-6.1,9.2-6.1,16.8c0,5.2,2.4,9.8,7,14c4.6,4.1,12,9.2,22.3,15.3c10.3,6.3,17.9,12.4,22.9,18.3
	c5,5.9,7.6,13.3,7.6,22.7c0,13.1-4.4,23.1-12.9,30.5C495.1,239.7,483.5,243.2,469.1,243.2z M679.6,292c-9.2,0-17.5-1.3-25.3-4.1
	c-7.6-2.6-15.1-6.5-22.3-11.8l-3.5-2.6c-11.3-7.9-20.5-15.1-27.9-21.2c-7-5.9-14.8-10.7-23.8-14.4c-12.7-5.7-23.1-13.5-31.4-23.6
	c-8.3-10.3-12.4-23.8-12.4-40.1c0-12.9,2.8-24.9,8.3-36c5.7-11.1,14-20.1,24.9-26.8c11.1-6.8,24-10.3,39.3-10.3
	c12.7,0,24.2,2.8,34.9,8.7c10.9,5.7,19.6,13.7,26,24.2c6.5,10.5,9.8,22.5,9.8,35.8c0,10.5-2,20.3-5.7,29.7
	c-3.7,9.4-9.2,17.5-16.6,24.4c-7.2,7-16.1,12-26.4,15.3c-1.3,0.4-2,0.9-2,1.7c0,0.7,0.4,1.1,1.1,2c7,7.4,15.3,14.8,25.1,22.3
	c6.8,5,13.3,8.5,19.2,10.7c5.9,2.2,12.7,3.1,20.1,3.1c4.8,0,8.1-0.4,10.3-1.1c1.3-0.4,2.8-0.7,4.1-0.7c2.4,0,3.5,0.9,3.5,2.6
	c0,1.3-0.2,2.2-0.9,2.8c-0.7,0.9-1.5,1.7-3.1,2.6C698.2,289.8,689.5,292,679.6,292L679.6,292z M607,234c14.4,0,25.3-4.8,32.7-14.2
	c7.6-9.6,11.3-22.7,11.3-39.3c0-13.1-2-24.7-5.7-35.1c-3.7-10.7-9.2-19-16.6-25.3c-7.2-6.3-16.1-9.4-26.8-9.4
	c-14.2,0-24.9,4.8-32.5,14.2c-7.4,9.4-11.1,22.3-11.1,38.8c0,13.1,1.7,24.9,5.5,35.6c3.7,10.7,9.2,19.2,16.4,25.5
	C587.6,230.9,596.5,234,607,234L607,234z M694.9,241.2c-1.7,0-3.1-0.2-3.9-0.9c-0.9-0.7-1.3-1.1-1.3-2c0-1.5,1.5-2.8,4.4-3.7
	c5.7-1.3,9.6-2.8,12-5c2.6-2.2,3.7-5.2,3.7-9.6v-96.6c0-3.3-0.4-5.9-1.1-7.4c-0.7-1.7-2-2.8-3.5-3.7c-1.7-0.9-4.4-1.5-8.3-2.4
	c-4.1-0.9-6.1-2.2-6.1-4.1c0-1.7,1.7-2.6,5.5-2.6c3.7,0,8.5,0.2,14,0.4c5,0.2,8.9,0.4,11.8,0.4l13.3-0.2c6.1-0.2,11.1-0.4,14.6-0.4
	s5.2,0.9,5.2,2.6c0,2-2,3.3-6.1,4.1c-6.3,1.3-10.7,2.8-13.3,4.4s-3.7,4.1-3.7,7.9v96.9c0,4.4,0.9,7.4,2.8,9.4
	c2.2,1.7,5.9,2.6,11.6,2.6h24.2c3.3,0,6.3-0.4,8.9-1.5c2.8-1.1,5-2.4,7-3.9c2.6-2.4,4.6-4.6,6.1-6.8c1.5-2.2,3.1-5.2,4.8-8.7
	c1.1-2.2,2-3.9,2.6-4.8c0.7-1.1,1.5-1.7,2.4-1.7c0.9,0,1.5,0.4,2,1.3c0.7,0.9,0.9,1.7,0.9,2.6c0,0.4,0,0.9-0.2,1.3
	c-0.2,0.4-0.2,0.7-0.2,1.1c-2,7-3.3,12.2-4.1,15.7c-0.7,3.3-1.3,7.2-1.7,11.3c-0.2,2.6-1.3,3.7-3.1,3.7c-7.2,0-19.2-0.2-36-0.4
	c-12-0.4-24-0.7-36-0.7c-6.5,0-14,0.2-22.5,0.9L694.9,241.2L694.9,241.2z"/>
<linearGradient id="SVGID_1_" gradientUnits="userSpaceOnUse" x1="23.4098" y1="796.96" x2="111.0583" y2="826.7314" gradientTransform="matrix(1 0 0 1 0 -652)">
	<stop  offset="0" style="stop-color:#929669"/>
	<stop  offset="0.231" style="stop-color:#929669"/>
	<stop  offset="1" style="stop-color:#FDFCF1"/>
</linearGradient>
<path class="st2" d="M73.8,284.4l-7.6-2.6c0,0,0.9-38.6-12.9-41.2c-9.2-10.7,1.3-454.2,34.9-1.5c0,0-11.3,5.7-13.5,15.5
	C72.3,264.1,73.8,284.4,73.8,284.4"/>
<linearGradient id="SVGID_2_" gradientUnits="userSpaceOnUse" x1="71.741" y1="652.1436" x2="110.4377" y2="893.8859" gradientTransform="matrix(1 0 0 1 0 -652)">
	<stop  offset="0" style="stop-color:#45AA3A"/>
	<stop  offset="1" style="stop-color:#3D9439"/>
</linearGradient>
<path class="st3" d="M78,247.1c0,0,66.3-43.6,50.8-134.2C113.7,47,78.4,25.4,74.7,17.1C70.5,11.3,66.4,1,66.4,1l2.8,183.5
	C69.2,184.3,63.3,240.3,78,247.1"/>
<linearGradient id="SVGID_3_" gradientUnits="userSpaceOnUse" x1="-0.5467" y1="798.5131" x2="103.5105" y2="763.633" gradientTransform="matrix(1 0 0 1 0 -652)">
	<stop  offset="0" style="stop-color:#41A83B"/>
	<stop  offset="1" style="stop-color:#5EBC44"/>
</linearGradient>
<path class="st4" d="M62.5,249.5c0,0-62.2-42.3-58.7-117.2S51.3,20.9,59.8,14.1c5.5-5.9,5.7-8.1,6.1-14c3.9,8.3,3.3,124.4,3.7,137.9
	C71.2,190.8,66.8,239.7,62.5,249.5"/>
<path class="st1" d="M834.8,222.7h3.5c2.8,0,3.9-1.1,3.9-3.5c0-2.6-1.1-3.5-4.4-3.5h-3.1C834.8,215.5,834.8,222.7,834.8,222.7z
	 M842.2,233.8l-4.1-8.9h-3.3v8.9h-2.4v-20.5h6.1c4.6,0,6.3,2,6.3,5.7c0,3.1-1.3,4.8-4.1,5.5l4.4,9.2L842.2,233.8L842.2,233.8z
	 M838.2,208.9c-8.3,0-14.8,6.5-14.8,14.8c0,8.1,6.5,14.6,14.6,14.6l0,0c8.1,0,14.6-6.5,14.6-14.6l0,0
	C852.9,215.2,846.5,208.9,838.2,208.9L838.2,208.9z M838.2,239.7c-9.2,0-16.1-7-16.1-16.1c0-9.2,7.2-16.1,16.1-16.1
	s16.1,7.2,16.1,15.9C854.4,232.5,847.4,239.7,838.2,239.7"/>
</svg>
