<svg xmlns="http://www.w3.org/2000/svg" width="7128" height="2890" fill="none"><g clip-path="url(#a)"><path fill="#D22128" d="M2457.08 854.5V1852h-86.93l-641.25-809.4V1852h-105.45V854.5h86.93l642.67 809.4V854.5h104.03Zm1028.1 498.75h101.17v380.47c-46.55 40.85-101.65 72.2-165.3 94.05-63.65 21.85-130.62 32.78-200.92 32.78-99.75 0-189.53-21.85-269.33-65.55-79.8-43.7-142.5-104.03-188.1-180.98-45.6-77.9-68.4-164.82-68.4-260.77 0-95.95 22.8-182.4 68.4-259.35 45.6-77.9 108.3-138.7 188.1-182.4 79.8-43.7 170.05-65.55 270.75-65.55 76 0 145.83 12.35 209.48 37.05 63.65 23.75 117.32 59.375 161.02 106.875l-65.55 66.975C3447.65 978.95 3347.43 940 3225.83 940c-80.75 0-153.9 18.05-219.45 54.15-64.6 35.15-115.43 84.55-152.48 148.2-37.05 62.7-55.57 133-55.57 210.9s18.52 148.2 55.57 210.9c37.05 62.7 87.88 112.1 152.48 148.2 64.6 36.1 137.27 54.15 218.02 54.15 102.6 0 189.53-25.65 260.78-76.95v-336.3ZM3884.8 854.5h105.45V1852H3884.8V854.5Zm1263.63 0V1852h-86.92l-641.25-809.4V1852h-105.45V854.5h86.92l642.68 809.4V854.5h104.02Zm951.16 997.5-322.05-438.9-320.63 438.9h-121.12l379.05-513-354.83-484.5h121.13l300.67 407.55 299.25-407.55h114l-353.4 481.65L6222.14 1852h-122.55Z"/><path fill="#6D6E71" d="M6461.7 847.8c15.3 15.3 22.9 33.7 22.9 55.2s-7.6 39.9-22.9 55.4c-15.3 15.4-33.8 23.1-55.6 23.1-21.8 0-40.2-7.6-55.4-22.9-15.1-15.3-22.7-33.7-22.7-55.2s7.6-39.9 22.9-55.4c15.3-15.4 33.7-23.1 55.4-23.1 21.6 0 40.1 7.6 55.4 22.9Zm-6.6 104.1c13.3-13.6 20-29.8 20-48.7 0-18.9-6.6-35-19.8-48.5-13.2-13.4-29.4-20.1-48.6-20.1-19.2 0-35.4 6.7-48.7 20.2-13.3 13.5-19.9 29.7-19.9 48.7 0 19 6.6 35.2 19.7 48.6 13.1 13.4 29.3 20.1 48.5 20.1s35.4-6.8 48.8-20.3Zm-11-63.8c0 14-6.1 22.8-18.4 26.4l22.5 30.5H6430l-20.3-28.3h-18.6V945h-14.7v-84.6h31.8c12.8 0 22 2.2 27.6 6.6 5.6 4.4 8.3 11.4 8.3 21.1Zm-18.9 11.9c3-2.4 4.4-6.5 4.4-12s-1.5-9.4-4.5-11.6c-3-2.2-8.4-3.2-16-3.2h-18v30.5h17.5c8.1-.1 13.7-1.3 16.6-3.7ZM1803.6 499.8v155.4h-20V499.8h-56.8v-19.2h133.9v19.2h-57.1ZM2082.2 655.2v-76.9H1977v76.9h-20V480.5h20v78.9h105.2v-78.9h20v174.7h-20ZM2241.4 499.8v57.4h88.1v19.2h-88.1v59.8h101.8v19h-121.8V480.5H2340v19.2h-98.6v.1ZM1659.39 2063.41c10.98 3.51 20.67 8.32 28.86 14.24l-9.59 22.65c-8.38-6.01-17.32-10.43-26.91-13.43-9.5-2.91-18.62-4.41-27.19-4.41-12.66 0-22.81 2.4-30.35 7.31-7.54 4.92-11.36 11.83-11.36 20.75 0 7.62 2.14 14.04 6.33 19.05 4.19 5.01 9.5 8.92 15.83 11.73 6.33 2.8 14.99 6.01 26.07 9.62 13.41 4.61 24.21 8.92 32.31 12.93 8.19 4.01 15.18 9.92 20.95 17.84 5.77 7.82 8.66 18.24 8.66 31.07 0 11.73-2.98 21.85-8.85 30.68-5.86 8.72-14.24 15.53-24.95 20.34-10.8 4.81-23.18 7.22-37.24 7.22-14.06 0-27.66-2.91-40.88-8.72-13.22-5.81-24.58-13.63-34.08-23.46l9.96-21.65c8.94 9.43 19.28 16.74 31.01 21.96 11.73 5.21 23.09 7.81 34.26 7.81 14.25 0 25.42-3 33.62-8.92 8.19-5.91 12.29-13.93 12.29-23.95 0-7.82-2.14-14.34-6.43-19.45-4.28-5.11-9.59-9.02-15.92-11.93-6.33-2.8-14.99-6.01-26.07-9.62-13.22-4.21-23.93-8.32-32.22-12.23-8.28-3.91-15.27-9.72-20.95-17.54-5.68-7.72-8.56-17.94-8.56-30.67 0-10.93 2.79-20.45 8.38-28.67 5.58-8.22 13.59-14.63 23.83-19.14 10.34-4.51 22.16-6.82 35.57-6.82 11.46.1 22.54 1.9 33.62 5.41ZM1950.05 2073.08c15.62 9.39 28.08 22.27 37.19 38.35 9.11 16.17 13.76 33.85 13.76 53.22 0 19.47-4.56 37.35-13.76 53.53-9.11 16.27-21.57 29.05-37.19 38.54-15.62 9.49-32.82 14.28-51.32 14.28-18.87 0-36.07-4.69-51.78-14.28-15.62-9.49-28.08-22.37-37.19-38.54-9.11-16.28-13.76-34.06-13.76-53.53s4.56-37.25 13.76-53.42c9.11-16.18 21.57-28.96 37.19-38.25 15.62-9.38 32.91-13.98 51.78-13.98 18.5-.1 35.61 4.6 51.32 14.08Zm-91.29 19.87c-12.18 7.39-21.95 17.48-29.2 30.06-7.25 12.58-10.97 26.46-10.97 41.64 0 15.28 3.63 29.26 10.97 41.94 7.25 12.68 17.02 22.77 29.2 30.16 12.17 7.39 25.47 11.08 39.88 11.08 14.41 0 27.61-3.69 39.7-11.08 12.08-7.39 21.66-17.38 28.91-30.16 7.16-12.68 10.79-26.66 10.79-41.94 0-15.28-3.63-29.16-10.79-41.74-7.16-12.58-16.83-22.57-28.91-29.96-12.09-7.39-25.29-11.18-39.61-11.18-14.41 0-27.7 3.69-39.97 11.18ZM2142.33 2082.24v74.14h91.2v23.25h-91.2V2270H2120v-211h124v23.24h-101.67ZM2426.54 2082.24V2270h-22.55v-187.76H2340V2059h151v23.24h-64.46ZM2780.11 2270l-52.92-177.74-53.67 177.74h-22.83L2585 2059h24.13l53.95 183.05 53.2-182.75 22.46-.3 53.76 183.05 53.21-183.05H2869l-65.78 211h-23.11ZM2980.77 2216.7l-21.91 53.3H2935l87.99-211h23.3l87.71 211h-24.33l-21.9-53.3h-107Zm53.31-130.25-43.71 107h87.98l-44.27-107ZM3328.83 2202.77c-5.6.4-9.99.6-13.16.6h-52.27V2270H3241v-211h74.67c24.45 0 43.49 6.21 57.12 18.54 13.53 12.32 20.34 29.85 20.34 52.39 0 17.24-3.82 31.76-11.38 43.39-7.56 11.62-18.48 20.03-32.67 25.04L3395 2270h-25.48l-40.69-67.23Zm28.18-35.16c9.62-8.42 14.47-20.84 14.47-37.07 0-15.93-4.85-27.96-14.47-36.07-9.61-8.12-23.42-12.23-41.34-12.23h-52.27v97.99h52.27c17.92 0 31.73-4.21 41.34-12.62ZM3540.48 2082.24v69.34h99.04v23.24h-99.04v72.24H3655V2270h-137v-211h133.27v23.24h-110.79ZM3967.51 2082.24v74.14h91.93v23.25h-91.93V2270H3945v-211h125v23.24h-102.49ZM4318.05 2073.08c15.62 9.39 28.08 22.27 37.19 38.35 9.11 16.17 13.76 33.85 13.76 53.22 0 19.47-4.56 37.35-13.76 53.53-9.11 16.27-21.57 29.05-37.19 38.54-15.62 9.49-32.82 14.28-51.32 14.28-18.87 0-36.07-4.69-51.78-14.28-15.62-9.49-28.08-22.37-37.19-38.54-9.11-16.28-13.76-34.06-13.76-53.53s4.56-37.25 13.76-53.42c9.11-16.18 21.57-28.96 37.19-38.25 15.62-9.38 32.91-13.98 51.78-13.98 18.6-.1 35.7 4.6 51.32 14.08Zm-91.2 19.87c-12.18 7.39-21.94 17.48-29.19 30.06-7.26 12.58-10.98 26.46-10.98 41.64 0 15.28 3.63 29.26 10.98 41.94 7.25 12.68 17.01 22.77 29.19 30.16 12.18 7.39 25.47 11.08 39.88 11.08 14.41 0 27.61-3.69 39.7-11.08 12.09-7.39 21.66-17.38 28.91-30.16 7.16-12.68 10.79-26.66 10.79-41.94 0-15.28-3.63-29.16-10.79-41.74-7.15-12.58-16.82-22.57-28.91-29.96-12.09-7.39-25.29-11.18-39.6-11.18-14.51 0-27.8 3.69-39.98 11.18ZM4626.17 2247.7c-14.64 15.5-34.79 23.3-60.44 23.3-25.83 0-46.07-7.8-60.72-23.3-14.64-15.5-22.01-37-22.01-64.6v-124h22.48v124c0 20.3 5.41 36.1 16.13 47.5 10.82 11.4 25.47 17.1 44.12 17.1 18.75 0 33.39-5.7 43.93-17 10.64-11.3 15.86-27.2 15.86-47.7v-124H4648v124c.09 27.7-7.18 49.2-21.83 64.7ZM4919.01 2270l-117.58-169.42V2270H4779v-211h23.27l117.57 169.62V2059H4942v211h-22.99ZM5207.21 2072.93c15.35 9.31 27.52 21.94 36.41 37.97 8.98 16.03 13.38 33.96 13.38 53.6s-4.49 37.67-13.38 53.7c-8.89 16.13-21.15 28.76-36.78 37.97-15.54 9.22-32.95 13.83-51.95 13.83H5076v-211h79.74c19 0 36.12 4.61 51.47 13.93Zm-108.66 174.13h57.47c14.5 0 27.7-3.51 39.59-10.62 11.88-7.12 21.33-16.94 28.26-29.56 6.93-12.52 10.39-26.55 10.39-42.08 0-15.53-3.56-29.46-10.58-41.98-7.02-12.52-16.56-22.34-28.64-29.66-11.98-7.21-25.26-10.92-39.86-10.92h-56.63v164.82ZM5383.77 2216.7l-21.91 53.3H5338l87.99-211h23.3l87.71 211h-24.23l-21.91-53.3h-107.09Zm53.31-130.25-43.71 107h87.98l-44.27-107ZM5683.87 2082.24V2270h-22.3v-187.76H5598V2059h150v23.24h-64.13ZM5856 2270v-211h23v211h-23ZM6152.05 2073.08c15.62 9.39 28.08 22.27 37.19 38.35 9.11 16.17 13.76 33.85 13.76 53.22 0 19.47-4.56 37.35-13.76 53.53-9.11 16.27-21.57 29.05-37.19 38.54-15.62 9.49-32.82 14.28-51.32 14.28-18.87 0-36.07-4.69-51.78-14.28-15.62-9.49-28.08-22.37-37.19-38.54-9.11-16.28-13.76-34.06-13.76-53.53s4.56-37.25 13.76-53.42c9.11-16.18 21.57-28.96 37.19-38.25 15.62-9.38 32.91-13.98 51.78-13.98 18.6-.1 35.7 4.6 51.32 14.08Zm-91.2 19.87c-12.18 7.39-21.94 17.48-29.19 30.06-7.26 12.58-10.98 26.46-10.98 41.64 0 15.28 3.63 29.26 10.98 41.94 7.25 12.68 17.01 22.77 29.19 30.16 12.18 7.39 25.47 11.08 39.88 11.08 14.41 0 27.61-3.69 39.7-11.08 12.09-7.39 21.66-17.38 28.91-30.16 7.16-12.68 10.79-26.66 10.79-41.94 0-15.28-3.63-29.16-10.79-41.74-7.15-12.58-16.82-22.57-28.91-29.96-12.09-7.39-25.29-11.18-39.6-11.18-14.51 0-27.71 3.69-39.98 11.18ZM6462.01 2270l-117.58-169.42V2270H6322v-211h23.27l117.57 169.62V2059H6485v211h-22.99Z"/><path fill="url(#b)" d="M1230.1 13.7c-45.3 26.8-120.6 102.5-210.5 212.3l82.6 155.9c58-82.9 116.9-157.5 176.3-221.2 4.6-5.1 7-7.5 7-7.5-2.3 2.5-4.6 5-7 7.5-19.2 21.2-77.5 89.2-165.5 224.4 84.7-4.2 214.9-21.6 321.1-39.7 31.6-177-31-258-31-258s-79.7-128.8-173-73.7Z"/><path fill="#BE202E" d="M952.6 1323c-10.6 1.9-21.4 3.8-32.5 5.7-.1 0-.1.1-.2.1 5.6-.8 11.2-1.7 16.6-2.6 5.5-1 10.8-2.1 16.1-3.2Z"/><path fill="#BE202E" d="M952.6 1323c-10.6 1.9-21.4 3.8-32.5 5.7-.1 0-.1.1-.2.1 5.6-.8 11.2-1.7 16.6-2.6 5.5-1 10.8-2.1 16.1-3.2Z" opacity=".35"/><path fill="#BE202E" d="M980.3 1186.7c-.1 0-.1 0 0 0-.1.1-.2.1-.2.1 1.8-.2 3.5-.5 5.2-.8 7-1 13.9-2.2 20.7-3.7-8.5 1.5-17 2.9-25.7 4.4Z"/><path fill="#BE202E" d="M980.3 1186.7c-.1 0-.1 0 0 0-.1.1-.2.1-.2.1 1.8-.2 3.5-.5 5.2-.8 7-1 13.9-2.2 20.7-3.7-8.5 1.5-17 2.9-25.7 4.4Z" opacity=".35"/><path fill="url(#c)" d="M858.6 784.7c25.1-46.9 50.5-92.8 76.2-137.4 26.7-46.4 53.7-91.3 80.9-134.7 1.6-2.6 3.2-5.2 4.8-7.7 27-42.7 54.2-83.7 81.6-122.9l-82.6-156c-6.2 7.6-12.5 15.3-18.8 23.2-23.8 29.7-48.6 61.6-73.9 95.5-28.6 38.2-58 78.9-87.8 121.7-27.6 39.5-55.5 80.9-83.5 123.7-23.8 36.5-47.7 74-71.4 112.5-.9 1.4-1.8 2.9-2.6 4.3L789 919.2c22.8-45.6 46.1-90.5 69.6-134.5Z"/><path fill="url(#d)" d="M369 1981c-14.2 39.1-28.5 78.9-42.9 119.6l-.6 1.8c-2 5.7-4.1 11.5-6.1 17.2-9.7 27.4-18 52.1-37.3 108.2 31.7 14.5 57.1 52.5 81.1 95.6-2.6-44.7-21-86.6-56.2-119.1 156.1 7 290.6-32.4 360.1-146.6 6.2-10.2 11.9-20.9 17-32.2-31.6 40.1-70.8 57.1-144.5 53-.2.1-.3.1-.5.2.2-.1.3-.1.5-.2 108.6-48.6 163.1-95.3 211.2-172.6 11.4-18.3 22.5-38.4 33.8-60.6-94.9 97.5-205 125.3-320.9 104.2l-86.9 9.5c-2.4 7.3-5.1 14.6-7.8 22Z"/><path fill="url(#e)" d="M409.6 1786.3c18.8-48.5 38.1-97.7 58-147.2 19-47.4 38.5-95.2 58.5-143.2 20-48 40.4-96.1 61.2-144.2 21.2-49 42.9-97.8 64.9-146.5 21.8-48.1 44-95.9 66.6-143.3 8.1-17.1 16.3-34.1 24.6-51 14.2-29.3 28.6-58.4 43.1-87.2.8-1.6 1.6-3.1 2.4-4.6L681.4 706.8c-1.8 2.9-3.5 5.8-5.3 8.6-25.1 40.9-50 82.7-74.4 125.4-24.7 43.1-49 87.1-72.7 131.7-20 37.6-39.6 75.6-58.6 113.9-3.8 7.8-7.6 15.5-11.3 23.2-23.4 48.2-44.6 94.8-63.7 139.5-21.7 50.7-40.7 99.2-57.5 145.1-11 30.2-21 59.4-30.1 87.4-7.5 24-14.7 47.9-21.5 71.8-16 56.3-29.9 112.4-41.2 168.3L353 1935.1c14.3-38.1 28.9-76.8 44-116 4.1-10.9 8.4-21.8 12.6-32.8Z"/><path fill="url(#f)" d="M243.5 1729.4c-13.6 68.2-23.2 136.2-28 203.8-.2 2.4-.4 4.7-.5 7.1-33.7-54-124-106.8-123.8-106.2 64.6 93.7 113.7 186.7 120.9 278-34.6 7.1-82-3.2-136.8-23.3 57.1 52.5 100 67 116.7 70.9-52.5 3.3-107.1 39.3-162.1 80.8 80.5-32.8 145.5-45.8 192.1-35.3C148.1 2414.2 74.1 2645 0 2890c22.7-6.7 36.2-21.9 43.9-42.6 13.2-44.4 100.8-335.6 238-718.2 3.9-10.9 7.8-21.8 11.8-32.9 1.1-3 2.2-6.1 3.3-9.2 14.5-40.1 29.5-81.1 45.1-122.9 3.5-9.5 7.1-19 10.7-28.6.1-.2.1-.4.2-.6l-107.9-213.2c-.5 2.6-1.1 5.1-1.6 7.6Z"/><path fill="url(#g)" d="M805.6 937c-3.1 6.3-6.2 12.7-9.3 19.1-9.3 19.2-18.8 38.8-28.3 58.8-10.3 21.7-20.7 43.9-31.3 66.5-5.3 11.4-10.6 22.9-16 34.6-16.1 35-32.4 71.1-48.9 108.3-20.3 45.8-41 93.4-62 142.8-20 47.1-40.3 95.9-60.9 146.3-19.5 47.9-39.3 97.3-59.3 148.3-17.8 45.4-35.9 92.1-54 140.1-.9 2.3-1.8 4.7-2.6 7-18 47.6-36.2 96.6-54.6 146.8-.4 1.1-.8 2.3-1.3 3.4l86.9-9.5c-1.7-.3-3.5-.5-5.2-.9 103.9-13 242.1-90.6 331.4-186.5 41.1-44.2 78.5-96.3 113-157.3 25.7-45.4 49.8-95.8 72.8-151.5 20.1-48.7 39.4-101.4 58-158.6-23.9 12.6-51.2 21.8-81.4 28.2-5.3 1.1-10.7 2.2-16.1 3.1-5.5 1-11 1.8-16.6 2.6.1 0 .1-.1.2-.1 96.9-37.3 158-109.2 202.4-197.4-25.5 17.4-66.9 40.1-116.6 51.1-6.7 1.5-13.7 2.7-20.7 3.7-1.7.3-3.5.6-5.2.8.1 0 .1 0 .1-.1h.1c33.6-14.1 62-29.8 86.6-48.4 5.3-4 10.4-8.1 15.3-12.3 7.5-6.5 14.7-13.3 21.5-20.5 4.4-4.6 8.6-9.3 12.7-14.2 9.6-11.5 18.7-23.9 27.1-37.3 2.6-4.1 5.1-8.3 7.6-12.6 3.2-6.2 6.3-12.3 9.3-18.3 13.5-27.2 24.4-51.5 33-72.8 4.3-10.6 8.1-20.5 11.3-29.7 1.3-3.7 2.5-7.2 3.7-10.6 3.4-10.2 6.2-19.3 8.4-27.3 3.3-12 5.3-21.5 6.4-28.4-3.3 2.6-7.1 5.2-11.3 7.7-29.3 17.5-79.5 33.4-119.9 40.8l79.8-8.8-79.8 8.8-1.8.3c-4 .7-8.1 1.3-12.2 2 .7-.3 1.4-.7 2.1-1l-273 29.9c-.4 1.1-.9 2.1-1.4 3.1Z"/><path fill="url(#h)" d="M1112.9 385.1c-24.3 37.3-50.8 79.6-79.4 127.5-1.5 2.5-3 5.1-4.5 7.6-24.6 41.5-50.8 87.1-78.3 137-23.8 43.1-48.5 89.3-74.3 139C854 839.5 830.8 885.4 807 934l273-29.9c79.5-36.6 115.1-69.7 149.6-117.6 9.2-13.2 18.4-27 27.5-41.3 28-43.8 55.6-92 80.1-139.9 23.7-46.3 44.7-92.2 60.7-133.5 10.2-26.3 18.4-50.8 24.1-72.3 5-19 8.9-36.9 11.9-54.1-106 18.1-236.3 35.5-321 39.7Z"/><path fill="#BE202E" d="M936.5 1326.1c-5.5 1-11 1.8-16.6 2.6 5.6-.7 11.1-1.6 16.6-2.6Z"/><path fill="#BE202E" d="M936.5 1326.1c-5.5 1-11 1.8-16.6 2.6 5.6-.7 11.1-1.6 16.6-2.6Z" opacity=".35"/><path fill="url(#i)" d="M936.5 1326.1c-5.5 1-11 1.8-16.6 2.6 5.6-.7 11.1-1.6 16.6-2.6Z"/><path fill="#BE202E" d="M980 1186.8c1.8-.2 3.5-.5 5.2-.8-1.7.3-3.4.6-5.2.8Z"/><path fill="#BE202E" d="M980 1186.8c1.8-.2 3.5-.5 5.2-.8-1.7.3-3.4.6-5.2.8Z" opacity=".35"/><path fill="url(#j)" d="M980 1186.8c1.8-.2 3.5-.5 5.2-.8-1.7.3-3.4.6-5.2.8Z"/></g><defs><linearGradient id="b" x1="1089.57" x2="1694.68" y1="245.13" y2="76.892" gradientUnits="userSpaceOnUse"><stop stop-color="#F69923"/><stop offset=".312" stop-color="#F79A23"/><stop offset=".838" stop-color="#E97826"/></linearGradient><linearGradient id="c" x1="-234.902" x2="995.845" y1="2960.91" y2="321.47" gradientUnits="userSpaceOnUse"><stop offset=".323" stop-color="#9E2064"/><stop offset=".63" stop-color="#C92037"/><stop offset=".751" stop-color="#CD2335"/><stop offset="1" stop-color="#E97826"/></linearGradient><linearGradient id="d" x1="178.398" x2="911.803" y1="2765.73" y2="1192.89" gradientUnits="userSpaceOnUse"><stop stop-color="#282662"/><stop offset=".095" stop-color="#662E8D"/><stop offset=".788" stop-color="#9F2064"/><stop offset=".949" stop-color="#CD2032"/></linearGradient><linearGradient id="e" x1="-190.371" x2="1040.37" y1="2801.19" y2="161.756" gradientUnits="userSpaceOnUse"><stop offset=".323" stop-color="#9E2064"/><stop offset=".63" stop-color="#C92037"/><stop offset=".751" stop-color="#CD2335"/><stop offset="1" stop-color="#E97826"/></linearGradient><linearGradient id="f" x1="-64.901" x2="581.893" y1="2625.35" y2="1238.24" gradientUnits="userSpaceOnUse"><stop stop-color="#282662"/><stop offset=".095" stop-color="#662E8D"/><stop offset=".788" stop-color="#9F2064"/><stop offset=".949" stop-color="#CD2032"/></linearGradient><linearGradient id="g" x1="82.801" x2="1313.55" y1="2928.57" y2="289.135" gradientUnits="userSpaceOnUse"><stop offset=".323" stop-color="#9E2064"/><stop offset=".63" stop-color="#C92037"/><stop offset=".751" stop-color="#CD2335"/><stop offset="1" stop-color="#E97826"/></linearGradient><linearGradient id="h" x1="-7.111" x2="1223.63" y1="3085.98" y2="446.542" gradientUnits="userSpaceOnUse"><stop offset=".323" stop-color="#9E2064"/><stop offset=".63" stop-color="#C92037"/><stop offset=".751" stop-color="#CD2335"/><stop offset="1" stop-color="#E97826"/></linearGradient><linearGradient id="i" x1="164.049" x2="1394.78" y1="2966.44" y2="327.022" gradientUnits="userSpaceOnUse"><stop offset=".323" stop-color="#9E2064"/><stop offset=".63" stop-color="#C92037"/><stop offset=".751" stop-color="#CD2335"/><stop offset="1" stop-color="#E97826"/></linearGradient><linearGradient id="j" x1="154.749" x2="1385.62" y1="2962.23" y2="322.687" gradientUnits="userSpaceOnUse"><stop offset=".323" stop-color="#9E2064"/><stop offset=".63" stop-color="#C92037"/><stop offset=".751" stop-color="#CD2335"/><stop offset="1" stop-color="#E97826"/></linearGradient><clipPath id="a"><path fill="#fff" d="M0 0h7127.6v2890H0z"/></clipPath></defs></svg>