<?xml version="1.0" encoding="utf-8"?>
<!-- Generator: Adobe Illustrator 24.1.2, SVG Export Plug-In . SVG Version: 6.00 Build 0)  -->
<svg version="1.1" id="Layer_1" xmlns="http://www.w3.org/2000/svg" xmlns:xlink="http://www.w3.org/1999/xlink" x="0px" y="0px"
	 viewBox="0 0 691.9 300.4" style="enable-background:new 0 0 691.9 300.4;" xml:space="preserve">
<style type="text/css">
	.st0{fill:#646464;}
	.st1{fill:url(#SVGID_1_);}
	.st2{fill:url(#SVGID_2_);}
	.st3{opacity:0.4438;fill:url(#SVGID_3_);enable-background:new    ;}
</style>
<path class="st0" d="M369.4,127.8c0-29.6-8.5-44.8-25.3-45.7c-6.7-0.3-13.4,0.8-19.7,3.2c-5.1,1.8-8.5,3.6-10.3,5.5v70.7
	c10.8,6.8,20.4,9.9,28.8,9.4C360.5,169.8,369.4,155.4,369.4,127.8L369.4,127.8z M390.2,129c0,15.1-3.5,27.5-10.6,37.5
	c-7.9,11.2-18.9,17-32.9,17.4c-10.6,0.3-21.5-3-32.7-9.9v64.3l-18.1-6.5V89c3-3.7,6.8-6.8,11.4-9.4c10.8-6.3,23.9-9.5,39.3-9.7
	l0.3,0.3c14.1-0.2,25,5.6,32.6,17.4C386.7,98.3,390.2,112.1,390.2,129z M498.4,181.4h-18.1v-70c0-7.1-1.7-13.2-5-18.4
	c-3.8-5.8-9.1-8.7-16-8.7c-8.3,0-18.7,4.4-31.2,13.2v83.9H410V14.1l18.1-5.7v76.2c11.6-8.4,24.2-12.7,38-12.7
	c9.6,0,17.4,3.2,23.3,9.7c6,6.4,8.9,14.5,8.9,24.1V181.4z"/>
<linearGradient id="SVGID_1_" gradientUnits="userSpaceOnUse" x1="115.8415" y1="-129.4455" x2="337.6857" y2="-320.3134" gradientTransform="matrix(0.5625 0 0 -0.568 -65.6313 -52.2502)">
	<stop  offset="0" style="stop-color:#5A9FD4"/>
	<stop  offset="1" style="stop-color:#306998"/>
</linearGradient>
<path class="st1" d="M116.8,14.8c-9.3,0-18.2,0.8-26.1,2.2c-23.1,4.1-27.3,12.6-27.3,28.4v20.8H118v6.9H43
	c-15.9,0-29.7,9.5-34.1,27.7c-5,20.8-5.2,33.8,0,55.5c3.9,16.2,13.1,27.7,29,27.7h18.8v-24.9c0-18,15.6-33.9,34.1-33.9h54.5
	c15.2,0,27.3-12.5,27.3-27.7v-52c0-14.8-12.5-25.9-27.3-28.4C135.9,15.4,126.2,14.7,116.8,14.8z M87.3,31.5
	c5.6,0,10.2,4.7,10.2,10.4c0,5.7-4.6,10.4-10.2,10.4c-5.7,0-10.2-4.6-10.2-10.4C77.1,36.2,81.7,31.5,87.3,31.5z"/>
<linearGradient id="SVGID_2_" gradientUnits="userSpaceOnUse" x1="423.4529" y1="-435.8339" x2="344.2316" y2="-323.7498" gradientTransform="matrix(0.5625 0 0 -0.568 -65.6313 -52.2502)">
	<stop  offset="0" style="stop-color:#FFD43B"/>
	<stop  offset="1" style="stop-color:#FFE873"/>
</linearGradient>
<path class="st2" d="M179.4,73.1v24.2c0,18.8-15.9,34.6-34.1,34.6H90.8c-14.9,0-27.3,12.8-27.3,27.7v52c0,14.8,12.9,23.5,27.3,27.7
	c17.3,5.1,33.8,6,54.5,0c13.7-4,27.3-12,27.3-27.7v-20.8h-54.5v-6.9h81.8c15.9,0,21.8-11.1,27.3-27.7c5.7-17.1,5.5-33.5,0-55.5
	c-3.9-15.8-11.4-27.7-27.3-27.7L179.4,73.1z M148.7,204.6c5.7,0,10.2,4.6,10.2,10.4c0,5.8-4.6,10.4-10.2,10.4
	c-5.6,0-10.2-4.7-10.2-10.4C138.5,209.3,143.1,204.6,148.7,204.6z"/>
<path class="st0" d="M652.1,56.5h3.2V36.6h7.5v-2.4h-18.2v2.4h7.5L652.1,56.5 M665.7,56.5h2.7V38.3l5.9,18.2h3l6.1-18.1v18.1h3V34.2
	h-3.9l-6.7,19.1L670,34.2h-4.4V56.5"/>
<radialGradient id="SVGID_3_" cx="-1970.3877" cy="163.2335" r="59.0901" gradientTransform="matrix(0 -0.24 -1.0547 0 290.8249 -198.1694)" gradientUnits="userSpaceOnUse">
	<stop  offset="0" style="stop-color:#B8B8B8;stop-opacity:0.498"/>
	<stop  offset="1" style="stop-color:#7F7F7F;stop-opacity:0"/>
</radialGradient>
<ellipse class="st3" cx="118.7" cy="274.6" rx="73.1" ry="14.2"/>
<path class="st0" d="M594.5,127.8c0-29.6-8.4-44.8-25.3-45.7c-6.7-0.3-13.4,0.8-19.7,3.2c-5.1,1.8-8.5,3.6-10.3,5.5v70.7
	c10.8,6.8,20.4,9.9,28.8,9.4C585.6,169.8,594.5,155.4,594.5,127.8z M615.3,129c0,15.1-3.5,27.5-10.6,37.5
	c-7.9,11.2-18.9,17-32.9,17.4c-10.6,0.3-21.5-3-32.7-9.9v64.3l-18.1-6.5V89c3-3.7,6.8-6.8,11.4-9.4c10.8-6.3,23.9-9.5,39.3-9.7
	l0.3,0.3c14.1-0.2,25,5.6,32.6,17.4C611.7,98.3,615.3,112.1,615.3,129z"/>
</svg>
