<?xml version="1.0" encoding="utf-8"?>
<!-- Generator: Adobe Illustrator 24.1.2, SVG Export Plug-In . SVG Version: 6.00 Build 0)  -->
<svg version="1.1"
	 id="svg1130" xmlns:cc="http://creativecommons.org/ns#" xmlns:dc="http://purl.org/dc/elements/1.1/" xmlns:rdf="http://www.w3.org/1999/02/22-rdf-syntax-ns#" xmlns:svg="http://www.w3.org/2000/svg"
	 xmlns="http://www.w3.org/2000/svg" xmlns:xlink="http://www.w3.org/1999/xlink" x="0px" y="0px" viewBox="0 0 532 301.1"
	 style="enable-background:new 0 0 532 301.1;" xml:space="preserve">
<style type="text/css">
	.st0{fill:#FFFFFF;stroke:#CB3837;stroke-width:44.6882;stroke-miterlimit:11.3386;}
	.st1{fill:#FFFFFF;stroke:#CB3837;stroke-width:45.0183;stroke-miterlimit:3;}
	.st2{fill:#FFFFFF;}
</style>
<g id="layer1" transform="translate(-42.309267,-55.036301)">
	<path id="rect1143" class="st0" d="M68.3,123v158v39h78.2v-39h79.6V123C226.2,123,68.3,123,68.3,123z M147.1,162.7h39.2v79.1h-39.2
		V162.7z"/>
	<path id="path1168" class="st1" d="M347.3,144.8h-78v135.9h78V144.8z"/>
	<path id="rect1161" class="st1" d="M269.3,82.9V123h78V82.9H269.3z"/>
	<path id="rect1143-1" class="st0" d="M390.5,123.3v158v39h78.2v-39h79.6v-158C548.3,123.3,390.5,123.3,390.5,123.3z M469.4,162.9
		h39.2V242h-39.2V162.9z"/>
</g>
<rect x="227" y="27.9" class="st2" width="78" height="40.1"/>
<rect x="378.1" y="186.8" class="st2" width="127.8" height="39.4"/>
<rect x="354.7" y="68" class="st2" width="151.1" height="39.9"/>
<rect x="227" y="82.6" class="st2" width="78" height="135.9"/>
<rect x="348.2" y="68" class="st2" width="78" height="197.4"/>
<rect x="465.8" y="104.4" class="st2" width="40.1" height="84.5"/>
<rect x="55.9" y="187" class="st2" width="127.8" height="39.4"/>
<rect x="32.5" y="68.2" class="st2" width="151.1" height="39.9"/>
<rect x="26" y="68.2" class="st2" width="78" height="197.4"/>
<rect x="143.6" y="104.6" class="st2" width="40.1" height="84.5"/>
</svg>
