<svg xmlns="http://www.w3.org/2000/svg" width="712" height="384" fill="none"><path fill="url(#a)" d="M10 191.799c0 100.403 154.734 181.798 345.6 181.798s345.601-81.395 345.601-181.798S546.466 9.999 355.6 9.999C164.734 10 10 91.397 10 191.8Z"/><path fill="#777BB3" d="M355.6 360.099c183.411 0 332.1-75.351 332.1-168.301 0-92.949-148.689-168.301-332.1-168.301-183.411 0-332.1 75.352-332.1 168.301 0 92.95 148.689 168.301 332.1 168.301Z"/><mask id="b" width="592.534" height="163.521" x="59.613" y="110.133" fill="#000" maskUnits="userSpaceOnUse"><path fill="#fff" d="M59.613 110.133h592.534v163.521H59.613z"/><path d="M94.424 147.149h46.345c13.577.112 23.284 3.927 29.122 11.445 5.952 7.519 7.683 17.786 5.192 30.803-1.056 5.947-3.007 11.782-5.855 17.505-2.847 5.723-6.715 10.884-11.603 15.485-5.987 5.835-12.278 9.538-18.874 11.109-6.595 1.571-13.409 2.357-20.442 2.357H97.558l-7.537 31.98H65.984l28.44-120.684Zm19.515 19.188-11.899 50.496c.781.112 1.517.168 2.208.168h2.421c11.041.112 20.285-.954 27.731-3.198 7.472-2.357 12.688-10.548 15.648-24.575 2.431-11.782.572-18.571-5.576-20.366-6.149-1.796-13.847-2.637-23.097-2.525a44.574 44.574 0 0 1-3.844.168H113.9l.039-.168ZM216.694 216.328h19.368l16.303-69.179h24.037l-20.348 86.347c-2.671 11.333-7.39 19.862-14.157 25.584-6.793 5.835-16.185 8.753-28.175 8.753h-47.209l4.244-18.01h43.059c4.869-.112 8.778-1.291 11.728-3.535 2.949-2.244 4.922-5.723 5.917-10.435h-21.27c-12.335 0-21.163-2.413-26.482-7.238-5.319-4.825-6.458-13.69-3.417-26.594l12.931-54.872h23.864l-12.455 52.852c-1.533 6.508-1.585 10.884-.154 13.129 1.547 2.244 5.606 3.366 12.177 3.366l.039-.168ZM282.897 147.149h16.947L307.42 115h24.037l-7.576 32.149h25.421l-4.165 17.673h-25.42l-8.449 35.852c-2.204 8.865-1.345 14.027 2.576 15.485 3.922 1.459 9.63 2.188 17.123 2.188h1.557l-4.125 17.506h-21.962c-9.108 0-15.386-2.469-18.834-7.406-3.447-4.938-4.167-11.671-2.157-20.199l10.234-43.426h-16.947l4.164-17.673ZM365.016 115h23.865l-7.576 32.149h21.443c11.706.224 20.374 2.581 26.002 7.069 5.745 4.489 7.193 13.017 4.347 25.585l-13.208 56.05h-24.21l12.613-53.526c1.322-5.61 1.108-9.594-.642-11.95-1.751-2.357-5.681-3.535-11.791-3.535l-19.156-.168-16.302 69.179h-23.864L365.016 115ZM514.137 225.248c-5.386 4.265-11.429 7.406-18.131 9.426-6.586 2.02-13.164 3.03-19.736 3.03-6.571 0-12.674-1.01-18.308-3.03-5.634-2.02-10.152-5.105-13.555-9.257-3.491-4.264-5.689-9.37-6.593-15.317-.789-5.947-.443-12.063 1.038-18.347 1.48-6.284 4.017-12.399 7.609-18.347 3.707-5.947 8.311-11.052 13.812-15.317 5.359-4.151 11.332-7.237 17.918-9.257 6.728-2.132 13.378-3.198 19.949-3.198 6.456 0 12.488 1.066 18.095 3.198 5.75 2.02 10.326 5.106 13.728 9.257 3.492 4.265 5.632 9.37 6.421 15.317.904 5.948.616 12.063-.865 18.347-1.481 6.284-4.075 12.4-7.782 18.347a55.575 55.575 0 0 1-13.64 15.317l.04-.169Zm-41.116-8.247c.728.336 1.411.617 2.05.841a17.84 17.84 0 0 0 2.129.505c5.349.786 10.775-.224 16.278-3.029 5.503-2.806 9.696-6.901 12.579-12.288a40.676 40.676 0 0 0 2.639-6.059 50.432 50.432 0 0 0 2.105-6.733c.933-4.937.82-9.594-.339-13.97-1.133-4.489-3.882-7.743-8.248-9.763a13.036 13.036 0 0 0-3.048-1.01 35.418 35.418 0 0 0-3.167-.504c-5.197-.449-10.432.729-15.704 3.534-5.273 2.806-9.311 6.733-12.115 11.782a58.203 58.203 0 0 0-2.811 6.06 39.11 39.11 0 0 0-1.601 6.059c-1.128 5.274-1.094 10.268.101 14.981 1.337 4.6 4.374 7.855 9.113 9.762l.039-.168ZM554.741 147.149h45.307c11.964.112 20.76 2.412 26.389 6.901 5.629 4.488 6.949 13.073 3.961 25.753l-13.208 56.05h-24.038l12.574-53.357c1.455-6.172 1.395-10.324-.177-12.456-1.573-2.132-5.587-3.198-12.043-3.198l-19.329-.168-16.302 69.179h-24.037l20.903-88.704Z"/></mask><path fill="#000" d="M94.424 147.149h46.345c13.577.112 23.284 3.927 29.122 11.445 5.952 7.519 7.683 17.786 5.192 30.803-1.056 5.947-3.007 11.782-5.855 17.505-2.847 5.723-6.715 10.884-11.603 15.485-5.987 5.835-12.278 9.538-18.874 11.109-6.595 1.571-13.409 2.357-20.442 2.357H97.558l-7.537 31.98H65.984l28.44-120.684Zm19.515 19.188-11.899 50.496c.781.112 1.517.168 2.208.168h2.421c11.041.112 20.285-.954 27.731-3.198 7.472-2.357 12.688-10.548 15.648-24.575 2.431-11.782.572-18.571-5.576-20.366-6.149-1.796-13.847-2.637-23.097-2.525a44.574 44.574 0 0 1-3.844.168H113.9l.039-.168ZM216.694 216.328h19.368l16.303-69.179h24.037l-20.348 86.347c-2.671 11.333-7.39 19.862-14.157 25.584-6.793 5.835-16.185 8.753-28.175 8.753h-47.209l4.244-18.01h43.059c4.869-.112 8.778-1.291 11.728-3.535 2.949-2.244 4.922-5.723 5.917-10.435h-21.27c-12.335 0-21.163-2.413-26.482-7.238-5.319-4.825-6.458-13.69-3.417-26.594l12.931-54.872h23.864l-12.455 52.852c-1.533 6.508-1.585 10.884-.154 13.129 1.547 2.244 5.606 3.366 12.177 3.366l.039-.168ZM282.897 147.149h16.947L307.42 115h24.037l-7.576 32.149h25.421l-4.165 17.673h-25.42l-8.449 35.852c-2.204 8.865-1.345 14.027 2.576 15.485 3.922 1.459 9.63 2.188 17.123 2.188h1.557l-4.125 17.506h-21.962c-9.108 0-15.386-2.469-18.834-7.406-3.447-4.938-4.167-11.671-2.157-20.199l10.234-43.426h-16.947l4.164-17.673ZM365.016 115h23.865l-7.576 32.149h21.443c11.706.224 20.374 2.581 26.002 7.069 5.745 4.489 7.193 13.017 4.347 25.585l-13.208 56.05h-24.21l12.613-53.526c1.322-5.61 1.108-9.594-.642-11.95-1.751-2.357-5.681-3.535-11.791-3.535l-19.156-.168-16.302 69.179h-23.864L365.016 115ZM514.137 225.248c-5.386 4.265-11.429 7.406-18.131 9.426-6.586 2.02-13.164 3.03-19.736 3.03-6.571 0-12.674-1.01-18.308-3.03-5.634-2.02-10.152-5.105-13.555-9.257-3.491-4.264-5.689-9.37-6.593-15.317-.789-5.947-.443-12.063 1.038-18.347 1.48-6.284 4.017-12.399 7.609-18.347 3.707-5.947 8.311-11.052 13.812-15.317 5.359-4.151 11.332-7.237 17.918-9.257 6.728-2.132 13.378-3.198 19.949-3.198 6.456 0 12.488 1.066 18.095 3.198 5.75 2.02 10.326 5.106 13.728 9.257 3.492 4.265 5.632 9.37 6.421 15.317.904 5.948.616 12.063-.865 18.347-1.481 6.284-4.075 12.4-7.782 18.347a55.575 55.575 0 0 1-13.64 15.317l.04-.169Zm-41.116-8.247c.728.336 1.411.617 2.05.841a17.84 17.84 0 0 0 2.129.505c5.349.786 10.775-.224 16.278-3.029 5.503-2.806 9.696-6.901 12.579-12.288a40.676 40.676 0 0 0 2.639-6.059 50.432 50.432 0 0 0 2.105-6.733c.933-4.937.82-9.594-.339-13.97-1.133-4.489-3.882-7.743-8.248-9.763a13.036 13.036 0 0 0-3.048-1.01 35.418 35.418 0 0 0-3.167-.504c-5.197-.449-10.432.729-15.704 3.534-5.273 2.806-9.311 6.733-12.115 11.782a58.203 58.203 0 0 0-2.811 6.06 39.11 39.11 0 0 0-1.601 6.059c-1.128 5.274-1.094 10.268.101 14.981 1.337 4.6 4.374 7.855 9.113 9.762l.039-.168ZM554.741 147.149h45.307c11.964.112 20.76 2.412 26.389 6.901 5.629 4.488 6.949 13.073 3.961 25.753l-13.208 56.05h-24.038l12.574-53.357c1.455-6.172 1.395-10.324-.177-12.456-1.573-2.132-5.587-3.198-12.043-3.198l-19.329-.168-16.302 69.179h-24.037l20.903-88.704Z"/><path stroke="#fff" stroke-width="10" d="M94.424 147.149h46.345c13.577.112 23.284 3.927 29.122 11.445 5.952 7.519 7.683 17.786 5.192 30.803-1.056 5.947-3.007 11.782-5.855 17.505-2.847 5.723-6.715 10.884-11.603 15.485-5.987 5.835-12.278 9.538-18.874 11.109-6.595 1.571-13.409 2.357-20.442 2.357H97.558l-7.537 31.98H65.984l28.44-120.684Zm19.515 19.188-11.899 50.496c.781.112 1.517.168 2.208.168h2.421c11.041.112 20.285-.954 27.731-3.198 7.472-2.357 12.688-10.548 15.648-24.575 2.431-11.782.572-18.571-5.576-20.366-6.149-1.796-13.847-2.637-23.097-2.525a44.574 44.574 0 0 1-3.844.168H113.9l.039-.168ZM216.694 216.328h19.368l16.303-69.179h24.037l-20.348 86.347c-2.671 11.333-7.39 19.862-14.157 25.584-6.793 5.835-16.185 8.753-28.175 8.753h-47.209l4.244-18.01h43.059c4.869-.112 8.778-1.291 11.728-3.535 2.949-2.244 4.922-5.723 5.917-10.435h-21.27c-12.335 0-21.163-2.413-26.482-7.238-5.319-4.825-6.458-13.69-3.417-26.594l12.931-54.872h23.864l-12.455 52.852c-1.533 6.508-1.585 10.884-.154 13.129 1.547 2.244 5.606 3.366 12.177 3.366l.039-.168ZM282.897 147.149h16.947L307.42 115h24.037l-7.576 32.149h25.421l-4.165 17.673h-25.42l-8.449 35.852c-2.204 8.865-1.345 14.027 2.576 15.485 3.922 1.459 9.63 2.188 17.123 2.188h1.557l-4.125 17.506h-21.962c-9.108 0-15.386-2.469-18.834-7.406-3.447-4.938-4.167-11.671-2.157-20.199l10.234-43.426h-16.947l4.164-17.673ZM365.016 115h23.865l-7.576 32.149h21.443c11.706.224 20.374 2.581 26.002 7.069 5.745 4.489 7.193 13.017 4.347 25.585l-13.208 56.05h-24.21l12.613-53.526c1.322-5.61 1.108-9.594-.642-11.95-1.751-2.357-5.681-3.535-11.791-3.535l-19.156-.168-16.302 69.179h-23.864L365.016 115ZM514.137 225.248c-5.386 4.265-11.429 7.406-18.131 9.426-6.586 2.02-13.164 3.03-19.736 3.03-6.571 0-12.674-1.01-18.308-3.03-5.634-2.02-10.152-5.105-13.555-9.257-3.491-4.264-5.689-9.37-6.593-15.317-.789-5.947-.443-12.063 1.038-18.347 1.48-6.284 4.017-12.399 7.609-18.347 3.707-5.947 8.311-11.052 13.812-15.317 5.359-4.151 11.332-7.237 17.918-9.257 6.728-2.132 13.378-3.198 19.949-3.198 6.456 0 12.488 1.066 18.095 3.198 5.75 2.02 10.326 5.106 13.728 9.257 3.492 4.265 5.632 9.37 6.421 15.317.904 5.948.616 12.063-.865 18.347-1.481 6.284-4.075 12.4-7.782 18.347a55.575 55.575 0 0 1-13.64 15.317l.04-.169Zm-41.116-8.247c.728.336 1.411.617 2.05.841a17.84 17.84 0 0 0 2.129.505c5.349.786 10.775-.224 16.278-3.029 5.503-2.806 9.696-6.901 12.579-12.288a40.676 40.676 0 0 0 2.639-6.059 50.432 50.432 0 0 0 2.105-6.733c.933-4.937.82-9.594-.339-13.97-1.133-4.489-3.882-7.743-8.248-9.763a13.036 13.036 0 0 0-3.048-1.01 35.418 35.418 0 0 0-3.167-.504c-5.197-.449-10.432.729-15.704 3.534-5.273 2.806-9.311 6.733-12.115 11.782a58.203 58.203 0 0 0-2.811 6.06 39.11 39.11 0 0 0-1.601 6.059c-1.128 5.274-1.094 10.268.101 14.981 1.337 4.6 4.374 7.855 9.113 9.762l.039-.168ZM554.741 147.149h45.307c11.964.112 20.76 2.412 26.389 6.901 5.629 4.488 6.949 13.073 3.961 25.753l-13.208 56.05h-24.038l12.574-53.357c1.455-6.172 1.395-10.324-.177-12.456-1.573-2.132-5.587-3.198-12.043-3.198l-19.329-.168-16.302 69.179h-24.037l20.903-88.704Z" mask="url(#b)"/><defs><radialGradient id="a" cx="0" cy="0" r="1" gradientTransform="translate(217.5 73.915) scale(453.822)" gradientUnits="userSpaceOnUse"><stop stop-color="#AEB2D5"/><stop offset=".3" stop-color="#AEB2D5"/><stop offset=".75" stop-color="#484C89"/><stop offset="1" stop-color="#484C89"/></radialGradient></defs></svg>