<?xml version="1.0" encoding="utf-8"?>
<!-- Generator: Adobe Illustrator 24.1.2, SVG Export Plug-In . SVG Version: 6.00 Build 0)  -->
<svg version="1.1"
	 id="svg12" inkscape:version="1.1.1 (3bf5ae0d25, 2021-09-20, custom)" sodipodi:docname="qt.svg" xmlns:cc="http://creativecommons.org/ns#" xmlns:dc="http://purl.org/dc/elements/1.1/" xmlns:inkscape="http://www.inkscape.org/namespaces/inkscape" xmlns:rdf="http://www.w3.org/1999/02/22-rdf-syntax-ns#" xmlns:sodipodi="http://sodipodi.sourceforge.net/DTD/sodipodi-0.dtd" xmlns:svg="http://www.w3.org/2000/svg"
	 xmlns="http://www.w3.org/2000/svg" xmlns:xlink="http://www.w3.org/1999/xlink" x="0px" y="0px" viewBox="0 0 585.4 302.1"
	 style="enable-background:new 0 0 585.4 302.1;" xml:space="preserve">
<style type="text/css">
	.st0{fill:#E40000;stroke:#FFFFFF;stroke-width:2.12;}
	.st1{fill:#7FE719;stroke:#FFFFFF;stroke-width:2.12;}
	.st2{fill:#729FCF;stroke:#FFFFFF;stroke-width:2.12;}
	.st3{stroke:#FFFFFF;stroke-width:1.25;}
</style>
<g id="g10">
	<path id="path2" class="st0" d="M22,209.3L15.4,44.1l105.7,79.3v178.4L22,209.3z"/>
	<path id="path4" class="st1" d="M121.1,301.8l158.5-66l13.2-165.1l-171.7,52.9V301.8L121.1,301.8z"/>
	<path id="path6" class="st2" d="M15.4,44.1l105.7,79.3l171.7-52.9L174.9,0.3L15.4,44.1z"/>
	<path id="path8" class="st3" d="M174.4,161.5L22.6,206.5L174.4,161.5z M174.4,161.5l105.9,73.8L174.4,161.5z M174.4,161.5V1.1"/>
</g>
<g id="text2562">
	<path id="path827" d="M444.5,223.8l-9.7-11.9c-4.9,2.2-10.1,3.9-15.6,5.1c-5.5,1.4-11.2,2.1-17.3,2.1c-10.7,0-20.6-1.8-29.8-5.5
		c-9.2-3.8-17.3-9.1-24.2-15.8c-6.8-6.8-12.3-14.7-16.2-23.6c-3.8-9-5.8-18.8-5.8-29.2c0-10.4,1.9-20.1,5.8-29
		c4-9,9.4-16.9,16.2-23.6c7-6.8,15.1-12.1,24.2-15.8c9.2-3.8,19.1-5.8,29.8-5.8s20.6,1.9,29.8,5.8c9.3,3.7,17.4,9,24.2,15.8
		c7,6.7,12.4,14.6,16.2,23.6c3.8,8.9,5.8,18.6,5.8,29c0,10.3-2,19.9-6,29c-3.8,8.9-9.1,16.7-15.8,23.4l14.4,17.9L444.5,223.8z
		 M402,191.8c2.7,0,5.3-0.2,7.6-0.6c2.5-0.5,4.8-1.3,7-2.3L401,169.6L427,161l10.7,13.1c3.1-4,5.5-8.4,7.2-13.3
		c1.8-4.9,2.7-10.2,2.7-15.8c0-6.7-1.2-12.9-3.5-18.5c-2.3-5.8-5.5-10.7-9.7-14.8c-4.1-4.2-8.9-7.5-14.4-9.9
		c-5.5-2.5-11.5-3.7-18.1-3.7c-6.4,0-12.5,1.2-18.1,3.7c-5.5,2.3-10.3,5.6-14.4,9.9c-4,4.1-7.1,9-9.4,14.8
		c-2.3,5.6-3.5,11.8-3.5,18.5c0,6.6,1.2,12.7,3.5,18.5c2.3,5.8,5.5,10.7,9.4,15c4.1,4.1,8.9,7.4,14.4,9.9
		C389.5,190.6,395.6,191.8,402,191.8L402,191.8z"/>
	<path id="path829" d="M547.4,218.5c-11.9,0-20.9-2.7-27.1-8c-6-5.5-9-13.4-9-23.8v-53.4h-22v-23.4h22V82.5l28.1-6.4v33.7H570v23.4
		h-30.6v47.6c0,4.9,1.1,8.5,3.3,10.7c2.2,2.1,6,3.1,11.5,3.1c2.7,0,5.2-0.1,7.4-0.4c2.3-0.4,4.9-1.1,7.6-2.1v23.2
		c-2.9,1-6.4,1.7-10.7,2.3C554.2,218.2,550.5,218.5,547.4,218.5L547.4,218.5z"/>
</g>
</svg>
