<?xml version="1.0" encoding="utf-8"?>
<!-- Generator: Adobe Illustrator 24.1.2, SVG Export Plug-In . SVG Version: 6.00 Build 0)  -->
<svg version="1.1"
	 id="svg8" xmlns:cc="http://creativecommons.org/ns#" xmlns:dc="http://purl.org/dc/elements/1.1/" xmlns:rdf="http://www.w3.org/1999/02/22-rdf-syntax-ns#" xmlns:svg="http://www.w3.org/2000/svg"
	 xmlns="http://www.w3.org/2000/svg" xmlns:xlink="http://www.w3.org/1999/xlink" x="0px" y="0px" viewBox="0 0 803.2 300.5"
	 style="enable-background:new 0 0 803.2 300.5;" xml:space="preserve">
<style type="text/css">
	
		.st0{fill-rule:evenodd;clip-rule:evenodd;fill:#303030;stroke:#303030;stroke-width:2.8346;stroke-linejoin:round;stroke-miterlimit:11.3386;}
	.st1{fill-rule:evenodd;clip-rule:evenodd;fill:#04863B;}
	.st2{fill-rule:evenodd;clip-rule:evenodd;fill:#409D54;}
	.st3{fill-rule:evenodd;clip-rule:evenodd;fill:#4BB958;}
	
		.st4{fill-rule:evenodd;clip-rule:evenodd;fill:#303030;stroke:#303030;stroke-width:0.5669;stroke-linejoin:round;stroke-miterlimit:11.3386;}
	
		.st5{fill-rule:evenodd;clip-rule:evenodd;fill:#303030;stroke:#303030;stroke-width:0.1304;stroke-linejoin:round;stroke-miterlimit:11.3386;}
	.st6{fill-rule:evenodd;clip-rule:evenodd;fill:#3CA060;}
</style>
<g id="layer1" transform="translate(-26.25646,-10.891056)">
	<g id="g1806" transform="translate(1.7372519,0.92469853)">
		<path id="path1145-7" class="st0" d="M222,296.8v-54.8l-97-56.3l-48.7,28l146.3,84.3"/>
		<path id="path1147-9" class="st0" d="M27.8,73.6c0,56.1,0,140.2,0,196.3l48.7,28v-84.1l48.7,28l97-56.1V73.6l-48.7,28v56.1
			l-48.3,28l-48.7-28v-56.1L27.8,73.6"/>
		<path id="path1149-9" class="st0" d="M125.1,18.4L27.8,73.6l48.7,28l48.7-28l48.3,28l48.7-28l-98.3-55.1"/>
	</g>
	<g id="g1901">
		<path id="path885-1" class="st1" d="M462.2,247.7V107.5l-48.7-28v140.2L462.2,247.7"/>
		<path id="path887-5" class="st2" d="M268.2,247.7V107.5l48.7-28v140.2L268.2,247.7"/>
		<path id="path889-0" class="st3" d="M365.2,303.8l-97-56.1l48.7-28l48.3,28l48.7-28l48.7,28l-48.7,28L365.2,303.8"/>
	</g>
	<g id="g1874" transform="translate(8.5000756,1.4538652)">
		<path id="path867-9" class="st4" d="M586.8,244.8v-56.1c-48.7-28-48.7-28-97.3-56.1v56.1L586.8,244.8"/>
		<path id="path869-5" class="st4" d="M586.8,244.8l48.7-28l-48.7-28v-56.1l97,56.1v56.1l-97,56.1V244.8"/>
		<path id="path871-0" class="st4" d="M586.8,76.9V133l48.7,28l48.7-28L586.8,76.9"/>
		<path id="path873-7" class="st4" d="M489.5,133l48.7,28l48.7-28V76.9L489.5,133"/>
		<path id="path875-4" class="st4" d="M586.8,244.8l-48.7-28l-48.7,28l97,56.1v-56.1"/>
	</g>
	<g id="g1914" transform="translate(0.04724702,0.68508185)">
		<path id="path877-7" class="st5" d="M777.5,303.1l-48.7-28V50.7l48.7-28V303.1"/>
		<path id="path881-2" class="st6" d="M825.8,162.9l-48.3-28v56.1L825.8,162.9z"/>
		<path id="path883-3" class="st5" d="M825.8,275.1l-48.3,28V247l48.7-28v56.1"/>
	</g>
</g>
</svg>
