<?xml version="1.0" encoding="utf-8"?>
<!-- Generator: Adobe Illustrator 24.1.2, SVG Export Plug-In . SVG Version: 6.00 Build 0)  -->
<svg version="1.1"
	 id="svg8" xmlns:cc="http://creativecommons.org/ns#" xmlns:dc="http://purl.org/dc/elements/1.1/" xmlns:rdf="http://www.w3.org/1999/02/22-rdf-syntax-ns#" xmlns:svg="http://www.w3.org/2000/svg"
	 xmlns="http://www.w3.org/2000/svg" xmlns:xlink="http://www.w3.org/1999/xlink" x="0px" y="0px" viewBox="0 0 339.2 267.4"
	 style="enable-background:new 0 0 339.2 267.4;" xml:space="preserve">
<style type="text/css">
	.st0{fill:#019833;}
	.st1{fill:#66FE98;}
	.st2{fill:#45FE02;}
	.st3{fill:#017D17;}
	.st4{fill:#005D04;}
	.st5{fill:#FEFEFE;}
	.st6{fill:#808080;}
	.st7{fill:#CCCCCC;}
</style>
<rect x="211.8" y="187.4" transform="matrix(0.9989 -4.701308e-02 4.701308e-02 0.9989 -8.5944 10.1886)" width="1" height="0.8"/>
<g id="g871" transform="matrix(0.36801801,0,0,0.36801801,19.737659,5.9889113)">
	<g id="path815">
		<path class="st0" d="M310-10.7l-358.1,357L310,704.9l356.5-358.6L310-10.7"/>
	</g>
	<g id="path817">
		<path class="st1" d="M310,22V-8.1L-45.8,346.3h30.5L310,22"/>
	</g>
	<g id="path819">
		<path class="st2" d="M310,22V-8.1l356.8,354.4h-33L310,22"/>
	</g>
	<g id="path821">
		<path class="st3" d="M310,672.1v33.4L-45.8,346.3h30.5L310,672.1"/>
	</g>
	<g id="path823">
		<path class="st4" d="M310,672.1v33.4l356.8-359.1h-33L310,672.1"/>
	</g>
	<g id="path825">
		<path d="M131.3,637.4h-69l-26.9-26.2V110H14L-4.3,91.7v-56l19-20.6h241.2l21.7,21.7V90l-18,22h-18.2v169.4L412.9,112h-9.6
			l-19.9-21.5V34.1l19.6-18h243.4l19.3,19.3v53.3L131.3,637.4"/>
	</g>
	<g id="path827">
		<path d="M310,710.4L-53.6,346.3L310-16.3l362,362.6L310,710.4z M-42.5,346.3L310,699.2l350.9-352.9L310-5.1L-42.5,346.3z"/>
	</g>
	<g id="path829">
		<path class="st5" d="M252.7,48.2l10.7-6.9l-10.9-11.4h-232L8.7,41.7v44.6l13.1,13.1l6.2-13l-8.2-8.2V46.7l6.1-5.5l219,0.3
			L252.7,48.2"/>
	</g>
	<g id="path831">
		<path class="st5" d="M63.9,85.3v522.5l7.3,7l-5.9,11.1l-15.5-15.2V98.8L63.9,85.3"/>
	</g>
	<g id="path833">
		<path class="st6" d="M26.4,85.3l-4.6,14.1h28L66,85.3H26.4"/>
	</g>
	<g id="path835">
		<path class="st5" d="M418.4,85.5l-9.8-6.9V50.5l10.3-10.3h213.9l8.2,10.9l11.7-9.2l-12-11h-230l-11.4,11.5v45l12.1,10.9
			 M225.3,314.7L203,368.9l252.1-253.2l-1.2-30.6L225.3,314.7"/>
	</g>
	<g id="path837">
		<path class="st6" d="M252.2,48l11.2-6.7v44l-12.8,12.8h-24.9l-0.5,216.6L203,368.8V85.3h41.6l7.7-6.3L252.2,48 M640.2,48.1
			l12.4-6.2v40.2L123.3,625.9h-58l5.7-10.7h44.5L640.3,72.7L640.2,48.1 M453.9,85.2l-12.9,13l-29.7,0.3l7.2-13L453.9,85.2"/>
	</g>
	<g id="path839">
		<path class="st7" d="M416.8,39.8l-8.2,8.2v30.1l7.2,7.2h37.9v29.1L203,368.9V85.7h41.7l8.5-8.6V46.6l-7.9-6.1H26l-7.2,7.2v31.1
			l7.3,7.3h38.1v521.6l7.2,7.2h43.3L640.3,72V48l-8.2-8.2H416.8"/>
	</g>
	<g id="path841">
		<path class="st6" d="M115.1,615.6H71.2l-7.6-7.6V86.9H25.8l-7.7-7.7V47.4l7.6-7.6h219.8l8.3,6.5v31.1l-9,9h-41.3v280.9L453,114.1
			V86h-37.5l-7.6-7.6V47.7l8.6-8.6h215.8l8.6,8.6v24.5l-0.2,0.2L115.1,615.6z M71.7,614.2h42.8L639.6,71.7V48.3l-7.8-7.8H417.1
			l-7.8,7.8v29.5l6.8,6.8h38.3v30.1l-0.2,0.2L202.3,370.6V85h42.1l8.1-8.2V47l-7.4-5.8H26.3L19.5,48v30.6l6.9,6.9H65v522L71.7,614.2
			z"/>
	</g>
</g>
<g id="text875" transform="matrix(1.1536941,0,-0.16136683,1.2602812,6.8999094,-22.647089)">
	<g id="g983" transform="matrix(1.0253526,0,0,1.0253526,-1.2465419,-2.2675828)">
		<g id="path890">
			<path class="st7" d="M135.3,158.7l-1.1,4.8c-0.1,0.3-0.2,0.5-0.4,0.6c-0.1,0.2-0.3,0.3-0.4,0.5c0,0-0.1,0-0.1,0.1l-0.1,0.1
				c-0.2,0.2-0.5,0.3-0.8,0.4c-0.3,0.1-0.7,0.1-1.2,0.1h-8.4c-0.3,0-0.5,0.1-0.8,0.1s-0.5,0-0.8,0.1c-0.9,0-1.8,0.1-2.6,0.4
				c-0.8,0.3-1.4,1.1-1.8,2.4c0,0.2-0.1,0.3-0.1,0.5c0,0.1-0.1,0.3-0.1,0.5c-0.1,0.3-0.2,0.7-0.3,1c0,0.3-0.1,0.6-0.1,0.9
				c0,0.6,0.2,1.1,0.6,1.6s1.2,0.9,2.4,1.3c0.1,0,0.2,0,0.2,0.1c0.1,0,0.2,0,0.3,0.1c0.8,0.2,1.6,0.4,2.6,0.6
				c0.9,0.2,1.9,0.4,2.8,0.7c1.2,0.4,2.4,0.9,3.5,1.4c1.1,0.6,2.1,1.3,2.9,2.3c0.4,0.4,0.7,1.1,0.9,1.9c0.2,0.9,0.3,1.8,0.3,2.8
				c0,0.7,0,1.4-0.1,2.1c-0.1,0.7-0.2,1.5-0.3,2.2c-0.4,1.8-0.9,3.6-1.7,5.3c-0.7,1.7-1.6,2.9-2.6,3.7c-1.2,1-2.5,1.8-3.8,2.3
				s-2.8,0.8-4.5,0.8H99.9c0,0-0.1,0-0.2,0s-0.2-0.1-0.3-0.1c-0.2,0-0.4-0.1-0.6-0.3c-0.2-0.1-0.4-0.3-0.5-0.5l0,0l-0.1-0.1v-0.1
				c0-0.1-0.1-0.2-0.1-0.3s-0.1-0.2-0.1-0.3s0-0.2,0-0.3c0,0-0.1-0.1-0.1-0.2s0-0.2,0-0.3s0-0.2,0-0.3s0-0.2,0.1-0.3l2-7.1h0.5
				c0,0.1-0.1,0.3-0.1,0.4c0,0.1,0,0.2,0,0.3c0,0.2,0,0.3,0,0.5s0.1,0.3,0.2,0.5c0,0.1,0,0.2,0.1,0.3c0,0.1,0.1,0.2,0.1,0.3
				c0.2,0.4,0.6,0.7,1,0.8c0.5,0,1.2,0.1,2.1,0.1c0.1,0,0.2,0,0.3,0c0.1,0,0.3,0,0.4,0c1.1,0,2.2,0.1,3.2,0.1c1,0,1.9,0,2.8,0
				c1.5,0,2.9-0.1,4.1-0.2c1.2-0.1,2.3-0.3,3.2-0.6c0.9-0.3,1.5-0.8,2-1.5c0.5-0.8,0.8-1.6,1.1-2.4c0.1-0.3,0.2-0.5,0.2-0.8
				s0.1-0.5,0.1-0.8v-0.1c0,0,0-0.1,0.1-0.1v-0.1v-0.1c0-1.2-0.6-2-1.9-2.6c-1.2-0.6-2.7-1-4.4-1.4c-0.3-0.1-0.6-0.2-0.9-0.2
				c-0.3-0.1-0.6-0.2-0.9-0.3c-2.1-0.5-3.9-1.2-5.7-2.1c-1.7-0.9-2.5-2.5-2.5-4.6v-0.1v-0.1v-0.1v-0.1c0.1-1,0.2-2.1,0.3-3.1
				c0.1-1,0.3-2.1,0.6-3.1c0.3-1,0.7-2.1,1.3-3.1c0.6-1,1.3-2.1,2.3-3.1c0.1-0.2,0.3-0.4,0.5-0.6c0.2-0.2,0.5-0.5,0.7-0.7
				c0.7-0.6,1.5-1.1,2.6-1.6s2.3-0.8,3.7-0.8h0.1h0.1c0,0,0,0,0.1,0h0.1L135.3,158.7L135.3,158.7z"/>
			<path d="M119.6,201.3H99.9l-0.4-0.1c-0.1,0-0.2-0.1-0.3-0.1c-0.3-0.1-0.6-0.2-0.9-0.4c-0.4-0.2-0.7-0.5-0.9-0.8
				c-0.2-0.2-0.2-0.4-0.3-0.7c0-0.1,0-0.1,0-0.2c-0.1-0.2-0.1-0.3-0.1-0.5l0,0c0-0.1-0.1-0.3-0.1-0.4v-0.6c0-0.2,0-0.4,0.1-0.6l2-7
				l1-0.7h0.5l1.3,1.5v0.1v0.6c0,0.1,0,0.1,0.1,0.2l0.1,0.5c0-0.1,0-0.1,0-0.2l0.1,0.3v0.1c0.5,0,1.1,0.1,1.9,0.1h0.6
				c1.2,0,2.2,0.1,3.2,0.1h2.8c1.5,0,2.8-0.1,3.9-0.2c1.2-0.1,2.1-0.3,2.9-0.6c0.7-0.2,1.1-0.6,1.5-1.2c0.4-0.7,0.8-1.4,1-2.2
				c0.1-0.2,0.1-0.5,0.2-0.7l0.1-0.7c0-0.1,0-0.3,0.1-0.4l0,0c0-0.7-0.3-1.1-1.2-1.5c-1.2-0.5-2.6-1-4.2-1.3
				c-0.3-0.1-0.6-0.1-0.8-0.2l-1.1-0.3c-2.1-0.5-4.1-1.3-5.9-2.2c-1.5-0.8-3.2-2.5-3.2-5.7v-0.6l0.3-3.1c0.1-1.1,0.4-2.2,0.7-3.3
				c0.3-1.1,0.8-2.2,1.4-3.3c0.6-1.1,1.4-2.1,2.3-3.2c0.1-0.2,0.3-0.4,0.5-0.7l0.8-0.8c0.8-0.7,1.7-1.3,2.9-1.8
				c1.2-0.6,2.6-0.9,4.2-0.9h18.3l1.3,1.4l-1.1,4.8c-0.1,0.4-0.3,0.7-0.5,0.9c-0.1,0.2-0.3,0.4-0.4,0.5l-0.4,0.1l0,0l0,0
				c0.1,0,0.1-0.1,0.2-0.1c-0.1,0.1-0.2,0.2-0.3,0.2c-0.3,0.2-0.6,0.3-1,0.5c-0.4,0.1-0.9,0.2-1.5,0.2H123c-0.5,0.1-1,0-1.5,0.1
				h-0.2c-0.8,0-1.6,0.1-2.3,0.3c-0.5,0.1-0.9,0.8-1.2,1.8l-0.1,0.5c-0.1,0.2-0.1,0.3-0.1,0.4l-0.2,1c0,0.2,0,0.5,0,0.7
				c0,0.3,0.1,0.6,0.4,1c0.1,0.1,0.4,0.4,1.5,0.8c0.1,0,0.3,0.1,0.4,0.1s0.2,0,0.2,0.1c0.7,0.2,1.6,0.3,2.5,0.6
				c0.9,0.2,1.9,0.4,2.9,0.7c1.3,0.4,2.5,0.9,3.7,1.5c1.3,0.6,2.4,1.5,3.3,2.5c0.6,0.6,1,1.4,1.2,2.5c0.2,0.9,0.3,1.9,0.3,3
				c0,0.7,0,1.5-0.1,2.2s-0.2,1.5-0.3,2.2c-0.4,1.9-1,3.8-1.7,5.5c-0.8,1.8-1.8,3.2-2.9,4.1c-1.3,1-2.6,1.9-4,2.5
				C123.1,201,121.4,201.3,119.6,201.3z M98.3,199.2l1.2,0.1v-0.1H98.3z M99.8,199.2h19.5c1.5,0,2.9-0.2,4.1-0.7s2.4-1.2,3.5-2.2
				c0.9-0.7,1.7-1.9,2.4-3.4c0.7-1.6,1.2-3.3,1.6-5.1c0.1-0.7,0.2-1.4,0.3-2.1c0.1-0.7,0.1-1.4,0.1-2c0-0.9-0.1-1.8-0.3-2.6
				c-0.1-0.7-0.3-1.1-0.6-1.4l-0.1-0.1c-0.7-0.8-1.5-1.5-2.5-1.9c-1-0.5-2.1-1-3.3-1.3c-0.9-0.3-1.8-0.5-2.7-0.7
				c-1-0.2-1.9-0.4-2.6-0.6l-0.1-0.1c0.1,0,0.1,0,0.2,0l-1-0.4c0.2,0.2,0.3,0.3,0.5,0.3h-0.1c-1.5-0.4-2.5-1-3.1-1.8
				c-0.5-0.7-0.8-1.5-0.8-2.3c0-0.3,0-0.7,0.1-1v-0.1l0.3-1c0-0.2,0.1-0.4,0.1-0.5l0.1-0.5c0.5-1.7,1.3-2.7,2.4-3.1
				c0.9-0.3,1.9-0.4,2.9-0.4c0.5-0.1,1.1,0,1.5-0.1h0.2h8.4c0.5,0,0.8,0,0.9-0.1c0.2,0,0.3-0.1,0.4-0.2h0.1c0.1-0.1,0.1-0.1,0.2-0.2
				c0.1-0.1,0.1-0.1,0.2-0.2l0.1-0.1c0.1-0.1,0.1-0.2,0.2-0.3l0.8-3.3H117c-1.2,0-2.3,0.2-3.2,0.7c-1,0.4-1.7,0.9-2.4,1.5l-0.6,0.6
				c-0.1,0.2-0.3,0.3-0.4,0.5l-0.1,0.1c-0.9,1-1.6,2-2.1,2.9c-0.5,1-0.9,2-1.2,2.9c-0.3,1-0.5,2-0.6,2.9l-0.3,3.1h-1.2l1.2,0.1h-1.2
				l1.2,0.1v0.1c0,2.4,1.1,3.2,1.9,3.7c1.6,0.8,3.4,1.5,5.3,2l0.9,0.2c0.3,0.1,0.7,0.1,1,0.2c1.7,0.4,3.3,0.9,4.6,1.5
				c1.7,0.7,2.7,2,2.7,3.6h-1.2l1.2,0.1v0.1l-0.3,0.7c0.1-0.1,0.2-0.3,0.2-0.4v0.4l-0.1,0.6c0,0.3-0.1,0.6-0.2,0.9
				c-0.3,0.9-0.7,1.8-1.2,2.6c-0.6,0.9-1.4,1.6-2.5,1.9c-0.9,0.3-2.1,0.6-3.4,0.7c-1.2,0.1-2.6,0.2-4.2,0.2H108
				c-1,0-2.1-0.1-3.2-0.1h-0.6c-0.9,0-1.6,0-2.2-0.1h-0.1c-0.6-0.1-1.1-0.4-1.5-0.7l-1.2,4.3v0.5c0-0.1,0-0.2-0.1-0.3
				c0-0.1,0.1-0.1,0.1-0.2l-0.1,0.2c0-0.1-0.1-0.2-0.2-0.2l0.1,0.3v0.1c0,0,0,0,0.1-0.1l0.2,0.5v0.2l0.1,0.3l0,0l0,0l0,0
				c0.1,0,0.1,0.1,0.2,0.1L99.8,199.2z M99.4,199L99.4,199L99.4,199L99.4,199z M99.3,199L99.3,199L99.3,199L99.3,199z M99.3,199
				L99.3,199c0-0.1-0.1-0.2-0.2-0.2L99.3,199z M99.2,198.5v0.2C99.3,198.7,99.3,198.6,99.2,198.5z M121.1,186.5h0.3H121.1
				L121.1,186.5z M132.6,163.7c-0.1,0-0.1,0.1-0.2,0.1L132.6,163.7C132.5,163.8,132.5,163.8,132.6,163.7z M119.3,175L119.3,175
				L119.3,175z"/>
		</g>
		<g id="path892">
			<path class="st7" d="M158.9,158.8h16.5l-1.1,6.1c0,0.1,0,0.2-0.1,0.3c0,0.1-0.1,0.3-0.2,0.4c0,0.1-0.1,0.2-0.1,0.3l-0.1,0.1
				c-0.1,0.1-0.2,0.2-0.3,0.3s-0.2,0.2-0.2,0.2l-0.1,0.1h-0.1c-0.3,0.2-0.7,0.4-1.1,0.6c-0.4,0.2-0.8,0.3-1.2,0.3h-9.5
				c-1,0-1.9,0.1-2.8,0.2c-0.9,0.1-1.6,0.6-2.2,1.3c-0.7,1-1.3,2.2-1.9,3.6c-0.6,1.4-1.1,2.8-1.5,4.2c-0.5,1.8-0.9,3.5-1.2,5.1
				s-0.4,2.9-0.4,3.9c0,0.2,0,0.3,0,0.5c0,0.1,0,0.3,0.1,0.4c0.4,2.2,1,3.6,1.9,4.1s1.9,0.8,3.1,0.8c0.2,0,0.4,0,0.6,0
				s0.4,0,0.6-0.1c0.2,0,0.4,0,0.6,0c0.3,0,0.5,0,0.7,0c4.7,0,7.8-0.3,9.2-0.8s2.4-1.4,2.8-2.5l-2,8.8c-0.1,0.4-0.2,0.8-0.5,1.2
				c-0.2,0.3-0.5,0.6-0.7,0.8l-0.1,0.1c0,0,0,0-0.1,0c-0.3,0.3-0.7,0.6-1.1,0.8s-0.8,0.3-1.4,0.3h-13.9c-0.1,0-0.2,0-0.3,0
				s-0.2,0-0.3,0s-0.2,0-0.3,0s-0.2,0-0.3,0c-0.9,0-1.6-0.1-2.3-0.2c-0.7-0.1-1.3-0.3-1.8-0.5c-0.2,0-0.3-0.1-0.5-0.1
				c-0.2-0.1-0.3-0.2-0.5-0.2c-2-0.9-3.3-2.2-4-4.1c-0.6-1.8-1-3.8-1-5.8c0-0.2,0-0.3,0-0.5s0-0.3,0-0.5s0-0.3,0-0.5
				s0.1-0.3,0.1-0.5c0.1-1.4,0.3-2.8,0.5-4.4c0.2-1.5,0.5-3.1,0.8-4.6c0.8-3.8,1.9-7.3,3.3-10.6c1.5-3.3,3.3-5.7,5.7-6.9
				c0.2-0.1,0.4-0.2,0.6-0.3c0.2-0.1,0.4-0.2,0.6-0.3c1.1-0.5,2.2-0.8,3.3-1C156.3,158.9,157.5,158.8,158.9,158.8L158.9,158.8z"/>
			<path d="M165.3,201.3h-14.9c-0.9,0-1.8-0.1-2.6-0.2c-0.7-0.1-1.4-0.3-1.9-0.5l-0.7-0.2c-0.1-0.1-0.2-0.1-0.3-0.1h-0.1
				c-2.3-1-3.9-2.6-4.7-4.8c-0.7-2-1-4-1-6.1v-1.8c0-0.1,0-0.2,0-0.3v-0.1c0.1-1.4,0.3-2.9,0.5-4.4c0.2-1.6,0.5-3.1,0.8-4.7
				c0.8-3.8,1.9-7.4,3.4-10.8c1.5-3.5,3.6-6,6.1-7.4c0.2-0.1,0.5-0.3,0.8-0.4l0.6-0.3c1.2-0.5,2.4-0.9,3.5-1.1
				c1.2-0.3,2.5-0.4,3.9-0.4h16.5l1.3,1.3l-1.1,6.1c0,0.2-0.1,0.4-0.2,0.6c-0.1,0.1-0.1,0.3-0.2,0.4l-0.3,0.4l-0.7,0.7l-0.2,0.1l0,0
				c-0.4,0.2-0.8,0.5-1.2,0.6c-0.5,0.2-1.1,0.4-1.7,0.4h-9.5c-0.9,0-1.8,0.1-2.7,0.2c-0.6,0.1-1.1,0.4-1.5,0.9
				c-0.6,1-1.3,2.1-1.8,3.4c-0.5,1.3-1,2.7-1.4,4.1c-0.5,1.8-0.9,3.5-1.2,5.1c-0.2,1.6-0.4,2.8-0.4,3.8v0.5v0.2
				c0.5,2.6,1.2,3.2,1.4,3.3c0.7,0.4,1.4,0.6,2.4,0.6h0.6c0.1,0,0.3,0,0.4,0h0.2h1.4c5.7,0,7.9-0.4,8.8-0.7c1.2-0.4,1.9-1.1,2.3-2
				l2.2,0.8l-2,8.8c-0.1,0.5-0.3,1-0.6,1.4s-0.6,0.7-0.9,1l-0.1,0.1h-0.1l0,0c-0.4,0.3-0.8,0.6-1.3,0.9
				C166.6,201.1,166,201.3,165.3,201.3z M145.9,198.5l0.5,0.1c0.5,0.2,1,0.3,1.6,0.4c0.6,0.1,1.3,0.2,2.1,0.2H165
				c0.3,0,0.6-0.1,0.8-0.2c0.3-0.2,0.6-0.4,0.9-0.7l0.1-0.1l0.1-0.1c0.1-0.1,0.3-0.2,0.4-0.5c0.2-0.3,0.3-0.5,0.3-0.9l1.2-5.1
				c-0.1,0-0.2,0.1-0.3,0.1c-1.6,0.6-4.7,0.8-9.6,0.8h-1.2c-0.2,0-0.5,0.1-0.8,0.1h-0.6c-1.4,0-2.7-0.3-3.8-1
				c-1.3-0.8-2.1-2.3-2.5-4.9c-0.1-0.2-0.1-0.4-0.1-0.6v-0.5c0-1,0.1-2.4,0.4-4.1c0.3-1.7,0.7-3.4,1.2-5.3c0.4-1.5,0.9-2.9,1.5-4.3
				c0.6-1.4,1.3-2.7,2-3.8l0.1-0.1c0.8-0.9,1.7-1.5,2.8-1.6c1-0.1,2-0.2,3-0.2h9.5c0.3,0,0.5-0.1,0.8-0.2c0.3-0.2,0.7-0.3,1-0.5l0,0
				l0.5-0.5l0.1-0.2c0-0.1,0.1-0.1,0.1-0.2l0.1-0.2l0.9-4.8H159c-1.2,0-2.4,0.1-3.4,0.4c-1.1,0.2-2.1,0.5-3.2,1l-0.7,0.3
				c-0.2,0.1-0.3,0.1-0.5,0.3c-2.2,1.2-3.9,3.4-5.3,6.5c-1.4,3.2-2.5,6.7-3.3,10.4c-0.3,1.5-0.6,3.1-0.8,4.6s-0.4,3-0.5,4.3
				c0,0.2,0,0.4-0.1,0.6v1.4c0,1.9,0.3,3.7,0.9,5.5c0.6,1.5,1.6,2.6,3.2,3.3C145.6,198.3,145.7,198.4,145.9,198.5z M173.1,164.6v0.1
				V164.6z"/>
		</g>
		<g id="path894">
			<path class="st7" d="M205.3,195.5c-1.5,1.2-3,2.1-4.8,2.8c-1.7,0.7-3.4,1.2-5.1,1.5c-0.8,0.1-1.5,0.2-2.3,0.3
				c-0.7,0-1.5,0.1-2.2,0.1c-2.7,0-5.3-0.4-7.5-1.2s-3.8-1.9-4.7-3.2c-0.6-0.9-1.1-2.2-1.4-3.7c-0.3-1.5-0.5-3.2-0.5-5
				c0-1.5,0.1-3.1,0.3-4.8s0.6-3.4,1-5.1c0.6-2.3,1.4-4.5,2.4-6.6c1-2.2,2.3-4.2,3.7-6c2-2.4,4.1-4,6.2-4.8c2.2-0.9,4.6-1.3,7.2-1.2
				c0.2,0,0.4,0,0.6,0s0.4,0,0.6,0v7.1c-0.4,0-0.9,0-1.4,0.1c-0.5,0-0.9,0-1.4,0.1c-0.7,0.2-1.5,0.5-2.2,0.8c-0.7,0.3-1.4,1-2,1.8
				c-0.8,1.2-1.5,2.5-2.2,4.1c-0.6,1.5-1.2,3.1-1.7,4.8c-0.6,1.9-1.1,3.8-1.4,5.6c-0.3,1.8-0.5,3.2-0.5,4.3v0.1l0,0v0.1
				c0,0,0,0,0,0.1c0,1.9,0.7,3.3,2,4.2c1.4,0.9,2.9,1.3,4.4,1.4h0.1h0.1c1.2,0,2.4-0.2,3.5-0.6c1.1-0.5,1.8-1.1,2.3-1.9
				c0.1-0.2,0.2-0.3,0.3-0.5s0.2-0.4,0.3-0.6c0.7-1.3,1.4-2.8,2.1-4.5c0.7-1.7,1.3-3.5,1.9-5.2c0.4-1.5,0.8-3,1-4.4
				c0.3-1.5,0.4-2.9,0.4-4.1c0-0.7,0-1.3-0.1-1.9c-0.1-0.6-0.2-1.1-0.5-1.5c-0.3-0.7-0.9-1.3-1.7-1.7c-0.9-0.4-1.8-0.6-2.9-0.6h-0.1
				H199h-0.1h-0.1v-7.1c0.1,0,0.2,0,0.2,0c0.1,0,0.2,0,0.2,0c3.6,0.1,6.8,0.7,9.8,1.7s4.7,4,5,8.9v0.1v0.1v0.1v0.1
				c0,1.4-0.2,3.2-0.5,5.5c-0.3,2.2-0.8,4.5-1.4,6.9c-0.7,2.7-1.7,5.4-2.9,7.8C208.3,192.4,206.9,194.2,205.3,195.5L205.3,195.5z"/>
			<path d="M191.1,201.2c-2.9,0-5.6-0.4-8-1.2c-2.5-0.9-4.3-2.1-5.4-3.7c-0.7-1.1-1.2-2.5-1.5-4.1s-0.5-3.3-0.5-5.2
				c0-1.5,0.1-3.2,0.3-4.9c0.2-1.8,0.6-3.5,1.1-5.2c0.6-2.3,1.4-4.6,2.4-6.8c1.1-2.2,2.4-4.3,3.8-6.2c2.1-2.5,4.3-4.2,6.6-5.1
				c2.3-0.9,4.9-1.3,7.6-1.3h1.6c3.7,0.1,7.2,0.7,10.3,1.8c3.6,1.2,5.6,4.6,5.9,9.9v0.5c0,1.5-0.2,3.4-0.5,5.6
				c-0.3,2.2-0.8,4.6-1.4,7c-0.7,2.8-1.7,5.5-3,8c-1.2,2.5-2.7,4.5-4.4,5.9l0,0c-1.5,1.2-3.2,2.2-5,2.9c-1.7,0.7-3.5,1.2-5.3,1.5
				c-0.8,0.1-1.6,0.2-2.4,0.3C192.6,201.2,191.9,201.2,191.1,201.2z M197.6,159.7c-2.3,0-4.5,0.4-6.4,1.1c-2,0.8-4,2.3-5.9,4.6
				c-1.4,1.7-2.6,3.7-3.6,5.8s-1.7,4.3-2.3,6.5c-0.5,1.6-0.8,3.3-1,5c-0.2,1.6-0.3,3.2-0.2,4.6c0,1.8,0.1,3.4,0.4,4.8
				c0.3,1.4,0.7,2.5,1.2,3.3c0.7,1,2.1,1.9,4,2.6c2.1,0.7,4.5,1.1,7.1,1.1c0.7,0,1.4,0,2.1-0.1c0.7-0.1,1.4-0.2,2.2-0.3
				c1.6-0.3,3.2-0.8,4.8-1.4c1.6-0.6,3.1-1.5,4.5-2.6l0,0c1.5-1.2,2.8-3,3.9-5.3c1.2-2.4,2.1-5,2.8-7.7c0.6-2.4,1.1-4.6,1.4-6.8
				c0.3-2.2,0.4-4,0.4-5.3h1.2l-1.2-0.1v-0.3c-0.3-4.3-1.7-6.9-4.1-7.8c-2.7-0.9-5.6-1.5-8.8-1.6v5.1c0.9,0.1,1.8,0.3,2.6,0.7
				c1.1,0.5,2,1.3,2.4,2.3c0.3,0.5,0.4,1.1,0.5,1.8c0.1,0.6,0.1,1.3,0.1,2c0,1.2-0.1,2.7-0.4,4.2c-0.3,1.5-0.6,3-1.1,4.5
				c-0.6,1.8-1.2,3.6-1.9,5.3s-1.4,3.3-2.2,4.6c-0.1,0.1-0.2,0.4-0.3,0.6c-0.1,0.1-0.2,0.3-0.3,0.5c-0.5,1-1.4,1.7-2.7,2.3
				c-1.2,0.5-2.5,0.7-3.9,0.7h-0.2c-1.8,0-3.5-0.6-5.1-1.6c-1.7-1.2-2.6-2.9-2.6-5.2h1.2l-1.2-0.1v-0.2c0-1.2,0.2-2.7,0.5-4.5
				c0.4-1.8,0.8-3.8,1.4-5.7c0.5-1.7,1.1-3.3,1.8-4.8c0.7-1.6,1.5-3.1,2.3-4.3c0.7-1,1.5-1.6,2.3-2.1c0.8-0.4,1.6-0.7,2.4-0.9
				c0.6-0.1,1.1-0.2,1.6-0.2c0.1,0,0.3,0,0.4,0L197.6,159.7C197.8,159.7,197.7,159.7,197.6,159.7z M199.2,166.8
				c-0.4,0-0.8,0-1.2,0.1h-0.1c-0.4,0-0.8,0-1.2,0.1c-0.6,0.1-1.2,0.4-1.9,0.7c-0.6,0.3-1.2,0.8-1.7,1.5c-0.7,1.1-1.4,2.4-2.1,3.9
				c-0.6,1.5-1.2,3.1-1.7,4.7c-0.6,1.9-1.1,3.7-1.4,5.5c-0.3,1.7-0.4,3.1-0.4,4.1v0.3c0,1.6,0.5,2.7,1.5,3.4
				c1.1,0.7,2.4,1.1,3.7,1.1h0.2c1.1,0,2.1-0.2,3-0.6c0.8-0.4,1.4-0.9,1.8-1.5l0.1-0.1c0.1-0.1,0.2-0.3,0.2-0.4
				c0.1-0.3,0.2-0.4,0.3-0.6c0.7-1.3,1.4-2.8,2.1-4.4c0.7-1.7,1.3-3.4,1.8-5.2c0.4-1.4,0.7-2.9,1-4.3c0.2-1.4,0.4-2.7,0.4-3.9
				c0-0.6,0-1.2-0.1-1.7s-0.2-0.9-0.3-1.2v-0.1c-0.2-0.4-0.5-0.8-1.1-1c-0.7-0.3-1.5-0.5-2.3-0.5L199.2,166.8L199.2,166.8z"/>
		</g>
		<g id="path896">
			<path class="st7" d="M249.6,148.9h9.9c0.3,0,0.6,0.1,0.9,0.3c0.3,0.1,0.5,0.3,0.7,0.5c0.3,0.2,0.5,0.5,0.6,0.8
				c0.2,0.3,0.3,0.7,0.3,1.2l-11.4,44.8v0.3v0.3c0,0.3,0,0.5,0.1,0.8c0,0.2,0.1,0.2,0.2,0.5c0.3,0.3,0.4,0.4,0.8,0.7
				c0.4,0.3,3.4,0.3,3.8,0.3c0,0.1,0,1.1,0,1.1c-0.8,0-9.4-0.1-11.7-0.1h-0.4h-0.3c-0.6,0-1.1-0.1-1.4-0.1c-0.3,0-0.7-0.2-1-0.5
				c-0.1-0.2-0.2-0.4-0.3-0.6c-0.1-0.3-0.1-0.5-0.1-0.8v-0.3c0-0.1,0-0.3,0.1-0.4l7.1-29.4h-5.7c-0.1,0-0.3,0.1-0.5,0.1h-0.5h-0.4
				h-0.3h-0.4h-0.3c-1,0-2,0.3-3,0.9c-1,0.6-2,2.1-3.2,4.6c-0.2,0.5-0.5,1.1-0.8,1.9c-0.3,0.7-0.6,1.5-0.9,2.3
				c-0.2,0.4-0.3,0.9-0.5,1.4s-0.3,0.9-0.5,1.4c-0.3,1-0.6,2-0.8,2.9s-0.3,1.8-0.3,2.6c0,0.3,0,0.5,0.1,0.7l0.1,0.6
				c0.5,1.5,1.2,2.4,2.3,3c1,0.5,2.2,0.7,3.4,0.7h0.7c0.3,0,0.5-0.1,0.7-0.1l1.7-0.3c0.6-0.1,1.2-0.2,1.7-0.3c0.3,0,0.5-0.1,0.7-0.1
				c0.3-0.1,0.5-0.2,0.7-0.2c0.1,0,0.3-0.1,0.4-0.2c0.1-0.1,0.3-0.2,0.5-0.3h0.1l0.1-0.1c0.1-0.1,0.3-0.2,0.4-0.3
				c0.2-0.1,0.3-0.2,0.4-0.3l-5.4,9.5c0,0,0,0.1-0.1,0.1l-0.1,0.1l-0.5,0.5l-0.5,0.4c-0.1,0.1-0.3,0.2-0.4,0.2
				c-0.1,0-0.2,0.1-0.3,0.1c-0.2,0.1-0.4,0.2-0.6,0.3s-0.5,0.1-0.8,0.1c-0.2,0-0.3,0.1-0.5,0.1h-0.4h-6.4c-0.8,0-1.6-0.1-2.3-0.3
				s-1.4-0.5-2.1-0.8c-1.5-0.9-2.6-2.1-3.1-3.7s-0.8-3.3-0.8-5v-0.1v-0.2c0-1.5,0.2-3.6,0.6-6.1c0.5-2.5,1.2-5.2,2.1-7.9
				c1.1-3.3,2.4-6.4,4.1-9.4c1.7-3,3.6-5,5.7-6.2c0.9-0.5,1.8-0.7,3-0.8s2.3-0.1,3.5-0.1h11.2l2.2-8c0-1-4.4-1.4-5.5-1.5
				c0-0.4-0.1-0.8-0.1-1.1L249.6,148.9z"/>
			<path d="M255.6,201.4c-0.3,0-1.6,0-3.3,0c-2.9,0-6.9-0.1-8.4-0.1h-0.8c-0.6,0-1.1-0.1-1.5-0.1c-0.6-0.1-1.1-0.3-1.7-0.7l-0.3-0.4
				c-0.2-0.3-0.3-0.5-0.4-0.8c-0.1-0.2-0.1-0.4-0.2-0.6l-0.2,0.3c0,0.1-0.1,0.3-0.3,0.4l-0.6,0.6l-0.5,0.4c-0.2,0.2-0.5,0.3-0.7,0.3
				c-0.1,0-0.2,0.1-0.3,0.1c-0.2,0.1-0.4,0.2-0.7,0.3s-0.7,0.2-1.1,0.2c-0.2,0-0.4,0.1-0.7,0.1h-6.8c-0.9,0-1.8-0.1-2.7-0.4
				c-0.7-0.2-1.5-0.5-2.3-0.8l-0.1-0.1c-1.8-1-3.1-2.5-3.7-4.4c-0.5-1.7-0.8-3.5-0.9-5.3v-0.3c0-1.6,0.2-3.7,0.7-6.3s1.2-5.3,2.1-8
				c1.1-3.3,2.5-6.5,4.2-9.5c1.7-3.1,3.8-5.3,6.1-6.6c1-0.6,2.2-0.9,3.5-0.9c1.1-0.1,2.4-0.1,3.6-0.1H248l1.8-6.8
				c-0.7-0.2-2.4-0.5-4.2-0.6l-1.2-1.1c0-0.2,0-0.3-0.1-0.5c0-0.2-0.1-0.4-0.1-0.6l1-1l4-0.1h9.9c0.6,0,1.1,0.1,1.5,0.4
				c0.4,0.2,0.8,0.4,1,0.8c0.4,0.3,0.6,0.7,0.8,1.2c0.2,0.5,0.3,1,0.3,1.6v0.2l-11.4,44.7v0.5c0,0.2,0,0.4,0,0.5c0,0,0,0.1,0.1,0.1
				c0.1,0.1,0.1,0.1,0.3,0.3l0,0c0.3,0.1,1,0.1,2.8,0.1c0.2,0,0.3,0,0.4,0l1.3,1.3c0,0.1,0,1,0,1L255.6,201.4z M243,199.2h0.7
				c1.2,0,4.1,0,6.8,0.1c-0.1-0.1-0.3-0.3-0.4-0.5l-0.2-0.3c-0.1-0.1-0.2-0.3-0.3-0.6s-0.1-0.7-0.1-1v-0.8l11.4-44.7
				c0-0.2-0.1-0.4-0.1-0.6v-0.1c-0.1-0.1-0.1-0.3-0.2-0.3l-0.2-0.2c0,0-0.1-0.1-0.2-0.1L260,150h-0.1h-8.7c0.4,0.2,0.8,0.4,1,0.6
				c0.3,0.3,0.5,0.7,0.5,1.1v0.2l-2.2,8l-1,0.7h-11.2c-1.2,0-2.3,0-3.4,0.1c-1,0-1.8,0.2-2.5,0.6c-2,1.1-3.8,3.1-5.4,5.9
				c-1.6,2.9-3,6-4,9.2c-0.9,2.7-1.6,5.3-2,7.8s-0.6,4.5-0.6,5.9v0.3c0,1.6,0.3,3.2,0.8,4.7c0.4,1.3,1.2,2.2,2.4,2.9
				c0.7,0.3,1.3,0.5,1.9,0.7c0.6,0.2,1.2,0.3,1.9,0.3h6.8c0.1,0,0.1,0,0.2,0h0.3c0.2,0,0.3,0,0.5-0.1s0.3-0.1,0.4-0.2l0.7-0.2
				c-0.1,0-0.1,0-0.1,0c0.1,0,0.1,0,0.2-0.1l0.4-0.3l0.4-0.4l3.6-6.4l0,0c-0.5,0.1-1.1,0.2-1.7,0.3l-1.8,0.3c-0.1,0-0.3,0-0.5,0
				h-0.2h-0.7c-1.4,0-2.8-0.3-4-0.8c-1.4-0.7-2.4-1.9-2.9-3.7l-0.2-0.8c-0.1-0.3-0.1-0.6-0.1-0.9c0-0.8,0.1-1.8,0.3-2.8s0.5-2,0.8-3
				l0.5-1.5c0.2-0.5,0.3-0.9,0.5-1.4c0.3-0.8,0.6-1.6,0.9-2.3l0.8-1.9c1.2-2.8,2.4-4.4,3.5-5.1c1.2-0.7,2.4-1,3.6-1h1.9l0.4-0.1h5.7
				l1.3,1.4l-4.9,20.4l-0.3,0.8l-0.5,2.4l-1.4,5.7c0,0.1,0,0.2,0,0.2v0.3c0,0.2,0,0.4,0.1,0.5c0,0,0,0.1,0.1,0.2
				c0.1,0,0.1,0.1,0.2,0.1C242,199.1,242.4,199.1,243,199.2z M236.8,197.9c-0.1,0.1-0.1,0.2-0.1,0.4L236.8,197.9z M252.4,198.2
				L252.4,198.2L252.4,198.2z M252.1,198L252.1,198z M230.7,187.3c0.4,1.1,0.9,1.8,1.6,2.2c0.8,0.4,1.8,0.6,2.8,0.6h0.6
				c0.2,0,0.5-0.1,0.7-0.1l1.6-0.2c0.6-0.1,1.1-0.2,1.6-0.3h0.1c0.2,0,0.4-0.1,0.6-0.1c0.2-0.1,0.5-0.1,0.7-0.2c0,0,0.1,0,0.1-0.1
				l0,0l4.8-19.9H242c-0.2,0-0.4,0.1-0.6,0.1h-1.9c-0.8,0-1.6,0.3-2.5,0.8c-0.5,0.3-1.4,1.2-2.8,4.2l-0.8,1.8
				c-0.3,0.7-0.6,1.5-0.9,2.3c-0.2,0.4-0.3,0.9-0.5,1.3l-0.5,1.4c-0.3,0.9-0.5,1.9-0.7,2.8c-0.2,0.9-0.3,1.7-0.3,2.4
				c0,0.2,0,0.4,0,0.5L230.7,187.3z M250.4,151.9L250.4,151.9L250.4,151.9z"/>
		</g>
		<g id="path898">
			<path class="st7" d="M293.1,189.7c0.5-0.3,1-0.6,1.5-1s0.9-0.8,1.2-1.4l-2.4,9.6c-0.3,0.6-0.6,1-0.9,1.4c-0.3,0.3-0.7,0.6-1,0.9
				c-0.1,0.1-0.3,0.2-0.4,0.3c-0.1,0-0.2,0.1-0.3,0.2c-0.3,0.1-0.6,0.2-1,0.3c-0.3,0.1-0.8,0.2-1.4,0.2c-0.1,0-0.2,0-0.3,0.1
				c-0.1,0-0.2,0-0.3,0h-13.4c-0.2,0-0.5,0-0.7,0s-0.4-0.1-0.6-0.1c-1.2-0.1-2.3-0.3-3.4-0.5c-1.1-0.3-2-0.8-2.7-1.4
				c-1-0.9-1.7-2.3-2.2-4c-0.4-1.8-0.6-3.7-0.6-5.9c0-1.4,0.1-2.8,0.2-4.2c0.2-1.5,0.4-2.9,0.7-4.4c0.9-4.5,2.2-8.6,4-12.5
				c1.8-3.9,3.8-6.2,5.9-7.1c0.9-0.4,2.4-0.7,4.4-0.9c2.1-0.2,4.2-0.3,6.4-0.3c0.1,0,0.2,0,0.3,0c0.1,0,0.2,0,0.3,0
				c2.4,0,4.6,0.1,6.7,0.3s3.6,0.5,4.4,0.9c1.5,0.7,2.4,1.8,3,3.4c0.6,1.6,0.8,3.3,0.8,5.1c0,0.1,0,0.3,0,0.4c0,0.1,0,0.2,0,0.3
				c0,1.2-0.2,2.5-0.4,3.7c-0.2,1.2-0.4,2.3-0.6,3.3c-0.2,0.7-0.3,1.4-0.5,1.9c-0.1,0.6-0.2,1-0.3,1.2c0,0.4-0.3,0.8-0.8,1
				s-1.3,0.3-2.3,0.3h-21.1c0,0,0-0.2,0.1-0.6c0.1-0.4,0.2-0.8,0.3-1.3v-0.1l0.1-0.1c0-0.2,0.1-0.4,0.1-0.6c0-0.2,0.1-0.4,0.1-0.6
				c0-0.2,0.1-0.3,0.1-0.5c0.1-0.2,0.2-0.4,0.2-0.6v-0.1l0.1-0.1c0.1-0.5,0.3-1,0.4-1.4s0.2-0.6,0.2-0.6h14.4
				c0.2-0.6,0.3-1.2,0.4-1.7c0.1-0.6,0.1-1.1,0.1-1.6c0-1.3-0.4-2.4-1.3-3.3s-2.5-1.4-4.9-1.4c-2.7,0-4.6,0.6-5.7,1.9
				c-1.1,1.3-2,3.1-2.7,5.3c-0.2,0.6-0.4,1.3-0.6,2.1c-0.2,0.7-0.5,1.5-0.7,2.3c-0.4,2.1-0.8,4-1.1,5.6c-0.3,1.6-0.5,2.9-0.5,4
				c0,0.5,0,0.9,0.1,1.3c0.1,0.3,0.2,0.6,0.4,0.8c0.3,0.4,0.6,0.7,1.2,0.8c0.6,0.2,1.2,0.3,1.8,0.3c0.2,0,0.4,0.1,0.6,0.1
				s0.4,0,0.6,0h7.3c0.1,0,0.2,0,0.3,0c0.1,0,0.2,0,0.3,0c0.9,0,1.7,0,2.3,0c0.6,0,1.2-0.1,1.8-0.3c0.3-0.1,0.6-0.2,0.9-0.3
				C292.5,190,292.8,189.8,293.1,189.7L293.1,189.7z"/>
			<path d="M288.4,201.3h-14.6l-0.6-0.1c-1.2-0.1-2.4-0.3-3.5-0.5c-1.4-0.4-2.5-0.9-3.3-1.7c-1.2-1.1-2-2.7-2.6-4.6
				c-0.5-1.9-0.7-3.9-0.7-6.1c0-1.4,0.1-2.9,0.2-4.3c0.2-1.5,0.4-3,0.7-4.5c0.9-4.5,2.2-8.8,4.1-12.7c2-4.1,4-6.6,6.3-7.6
				c1.1-0.5,2.6-0.8,4.8-1c2.1-0.2,4.3-0.3,6.5-0.3h0.6c2.4,0,4.7,0.1,6.8,0.3c2.3,0.2,3.9,0.6,4.9,1c1.8,0.9,3,2.3,3.7,4.2
				c0.5,1.7,0.8,3.5,0.8,5.4v0.7c0,1.3-0.2,2.6-0.4,3.9c-0.2,1.2-0.4,2.3-0.6,3.3c-0.2,0.8-0.4,1.4-0.5,2c-0.1,0.5-0.2,0.9-0.3,1.2
				c-0.1,0.5-0.4,1.2-1.3,1.6c-0.7,0.3-1.6,0.4-2.8,0.4h-20.2c-0.1,0.6-0.2,1.2-0.3,1.8c-0.3,1.5-0.4,2.8-0.4,3.8
				c0,0.4,0,0.8,0.1,1.1c0.1,0.2,0.1,0.3,0.2,0.4l0.1,0.1c0.1,0.1,0.2,0.2,0.5,0.3c0.4,0.1,0.9,0.2,1.5,0.3h0.2c0.1,0,0.3,0,0.4,0
				h10.8c0.5,0,1-0.1,1.5-0.2l0.8-0.2c0.3-0.1,0.5-0.2,0.8-0.4c0.5-0.3,0.9-0.6,1.3-0.9c0.4-0.3,0.8-0.7,1-1.2l2.1,1l-2.4,9.8
				c-0.3,0.6-0.7,1.2-1.1,1.6c-0.4,0.4-0.8,0.7-1.1,1l-0.5,0.3c-0.1,0-0.1,0.1-0.2,0.1l-0.2,0.1c-0.4,0.2-0.7,0.3-1.1,0.4
				c-0.4,0.1-0.9,0.2-1.5,0.2l0,0c0.1,0,0.2,0,0.2,0l-0.2,0.1l0,0L288.4,201.3z M273.9,199.2h14c0.1,0,0.3-0.1,0.4-0.1
				c0.5,0,0.9-0.1,1.1-0.2c0.3-0.1,0.5-0.1,0.7-0.2c0.1-0.1,0.2-0.1,0.3-0.2l0.3-0.2c0.3-0.2,0.6-0.5,0.9-0.8s0.5-0.6,0.7-1l1.5-5.9
				l0,0c-0.4,0.2-0.7,0.3-1,0.5l-1,0.3c-0.7,0.2-1.3,0.3-2,0.3h-10.9c-0.3,0-0.5,0-0.8-0.1c-0.7-0.1-1.4-0.2-2-0.4
				c-0.8-0.3-1.4-0.7-1.9-1.3c-0.3-0.3-0.5-0.8-0.6-1.2c-0.1-0.5-0.2-1-0.2-1.5c0-1.1,0.2-2.5,0.5-4.2c0.1-0.8,0.3-1.6,0.5-2.5
				l-0.1-0.1l0.1-0.6c0.1-0.4,0.2-0.8,0.3-1.3l0,0c0.1-0.4,0.2-0.8,0.2-1.2v-0.1c0-0.1,0-0.1,0.1-0.2l0.2-0.6
				c0.1-0.1,0.1-0.3,0.1-0.4v-0.1l0,0l0,0v-0.1l0,0l0,0l0.1-0.3c0-0.1,0-0.1,0-0.2c-0.1,0.1-0.1,0.2-0.1,0.3l0,0
				c0.1-0.5,0.3-1,0.4-1.4l0.2-0.6l0.1-0.1c0.1-0.2,0.2-0.5,0.2-0.7c0.8-2.4,1.7-4.3,2.9-5.6c1.3-1.5,3.5-2.3,6.5-2.3
				c2.8,0,4.7,0.6,5.9,1.8c1.1,1.1,1.6,2.5,1.6,4.1c0,0.6,0,1.1-0.1,1.7c-0.1,0.6-0.2,1.2-0.4,1.8l-1,0.7H278
				c-0.1,0.2-0.1,0.4-0.2,0.6c-0.2,0.7-0.4,1.3-0.6,2c0,0.2-0.1,0.3-0.1,0.5l-0.2,0.7c0,0.2-0.1,0.4-0.1,0.7h19.5
				c1,0,1.6-0.1,1.8-0.2c0.1,0,0.3-0.2,0.3-0.3v-0.2c0.1-0.2,0.2-0.6,0.3-1.1c0.2-0.6,0.3-1.2,0.5-1.9c0.2-0.9,0.4-2,0.6-3.2
				s0.3-2.4,0.4-3.6v-0.7c0-1.7-0.2-3.3-0.7-4.8c-0.4-1.3-1.2-2.1-2.3-2.7c-0.5-0.2-1.6-0.5-4-0.8c-2-0.2-4.3-0.3-6.6-0.3H286
				c-2.2,0-4.3,0.1-6.3,0.3c-1.9,0.2-3.3,0.4-4.1,0.8c-1.8,0.8-3.7,3.1-5.4,6.7c-1.8,3.8-3.1,7.9-3.9,12.3c-0.3,1.5-0.5,2.9-0.7,4.4
				c-0.1,1.4-0.2,2.8-0.2,4.1c0,2.1,0.2,3.9,0.6,5.6c0.4,1.5,1,2.6,1.8,3.4c0.5,0.4,1.2,0.8,2.1,1c1,0.2,2.1,0.4,3.2,0.5
				L273.9,199.2z M293.1,189.7L293.1,189.7L293.1,189.7z M278.8,173.1h11.8c0.1-0.3,0.1-0.6,0.2-1c0.1-0.5,0.1-1,0.1-1.5
				c0-1.1-0.3-1.9-1-2.6c-0.6-0.6-2-0.9-3.9-0.9c-2.4,0-4,0.5-4.9,1.6C280.2,169.8,279.4,171.3,278.8,173.1z"/>
		</g>
	</g>
</g>
<path class="st7" d="M258.5,221.9c1.1-0.4,2.4-0.7,3.4-1.3c-0.1,0.1-0.2,0.3-0.2,0.4c-0.1,0.2-0.3,0.5-0.4,0.7
	c-1.1,2-2.4,3.8-4.1,5.5c-1.2,1.2-2.5,2.5-4,3.4c-0.5,0.3-0.9,0.5-1.4,0.7"/>
<rect x="211.5" y="181.5" class="st7" width="4.2" height="5.9"/>
<rect x="213.9" y="181" class="st7" width="2.2" height="3.1"/>
<rect x="215.6" y="180.4" transform="matrix(6.515086e-02 -0.9979 0.9979 6.515086e-02 20.984 384.6371)" class="st7" width="0.4" height="1.5"/>
<rect x="213.1" y="180.9" class="st7" width="2" height="3.2"/>
<rect x="215" y="186.6" transform="matrix(0.1036 -0.9946 0.9946 0.1036 6.9819 381.9407)" class="st7" width="0.8" height="1"/>
<rect x="213.3" y="180.2" width="1.6" height="0.6"/>
<rect x="214.5" y="180.2" width="1.6" height="0.6"/>
<rect x="230.3" y="192.9" transform="matrix(0.1156 -0.9933 0.9933 0.1156 11.561 400.3652)" width="0.6" height="1.6"/>
<polygon class="st7" points="307.1,200.6 303.6,206.4 298.9,206.4 302.3,200.6 "/>
<rect x="299.2" y="206.4" transform="matrix(0.3073 -0.9516 0.9516 0.3073 10.9969 429.0151)" class="st7" width="1.9" height="1.2"/>
<rect x="301.4" y="199" transform="matrix(0.3257 -0.9455 0.9455 0.3257 15.3511 420.7471)" class="st7" width="2.6" height="1.2"/>
</svg>
