<svg xmlns="http://www.w3.org/2000/svg" width="768" height="256" viewBox="0 0 203.2 67.733"><path fill="#1793d1" d="M25.28 11.136c-1.957 4.798-3.137 7.937-5.316 12.592 1.336 1.416 2.975 3.065 5.638 4.928-2.863-1.179-4.815-2.361-6.275-3.589-2.788 5.819-7.157 14.108-16.023 30.038 6.969-4.021 12.37-6.503 17.404-7.448a12.783 12.783 0 0 1-.33-2.984l.008-.225c.11-4.464 2.432-7.897 5.184-7.663 2.75.233 4.889 4.043 4.777 8.507a12.316 12.316 0 0 1-.28 2.397c4.98.974 10.324 3.447 17.198 7.416a2083.43 2083.43 0 0 1-3.72-6.887c-1.82-1.41-3.717-3.246-7.591-5.233 2.662.693 4.567 1.49 6.054 2.38C30.26 23.494 29.31 20.589 25.28 11.138v-.001zm22.204 40.047v-1.204h-.45v-.161h1.082v.161h-.452v1.204zm.82 0v-1.365h.273l.323.968c.031.09.052.156.066.201l.074-.22.325-.95h.244v1.366h-.175V50.04l-.397 1.143h-.161l-.397-1.162v1.162z"/><g fill="#4d4d4d"><path d="m52.636 26.485-3.635 7.081-2.576-6.416-3.315.576 5.61 12.87 3.939-7.118 3.914 7.111 5.71-12.862-.79-.137-2.527-.439-2.642 6.435zM65.566 20.707l-2.169 2.684 2.228 2.637 2.169-2.65-.34-.407zm1.709 6.406-3.36.566v12.793l3.36-.566v-.542zM72.914 27.113l-3.36.565v12.793l3.36-.565v-6.775c0-.929.231-1.566.66-2.033.45-.488.99-.72 1.783-.72.78 0 1.234.176 1.458.394.247.24.395.595.395 1.214v8.485l3.36-.565v-8.14c0-1.561-.603-2.867-1.761-3.658h-.001c-.877-.596-1.952-.88-3.168-.88-1.062 0-2.396.518-4.538 2.245.762-1.111 1.261-1.355 1.812-1.77zM95.043 23.038l-3.36.565v4.564c-.365-.188-.15-.104-.808-.397l-.006-.002a6.024 6.024 0 0 0-2.458-.54c-1.732 0-3.266.638-4.464 1.865-1.187 1.214-1.797 2.782-1.797 4.568 0 1.802.624 3.412 1.83 4.71 1.206 1.299 2.737 1.986 4.453 1.986.946 0 1.837-.206 2.641-.62.978-.515 2.474-2.074 2.797-2.464-.91 1.566-1.415 2.075-2.057 2.557v.53l3.229-.435v-.56zm-6.523 7.45c1.046 0 1.82.309 2.459.941l.008.008c.65.62.958 1.36.958 2.377 0 1.094-.322 1.854-.988 2.452l-.003.002c-.607.552-1.35.827-2.347.827-.84 0-1.518-.297-2.161-.971-.642-.675-.936-1.404-.936-2.31 0-.916.283-1.663.888-2.35.595-.677 1.25-.976 2.122-.976zM103.1 27.228c-1.802 0-3.408.647-4.692 1.897-1.276 1.24-1.94 2.844-1.94 4.668 0 1.795.655 3.391 1.91 4.658l.002.003.003.003c1.274 1.254 2.897 1.9 4.739 1.9 1.802 0 3.403-.649 4.674-1.9 1.284-1.265 1.957-2.857 1.957-4.643 0-1.825-.672-3.436-1.96-4.69-1.285-1.249-2.89-1.896-4.693-1.896zm0 3.261c.942 0 1.669.307 2.318.976l.008.008c.66.653.966 1.401.966 2.385 0 .839-.288 1.553-.939 2.248-.631.675-1.365.99-2.354.99-.944 0-1.674-.304-2.322-.959-.649-.655-.95-1.392-.95-2.345 0-.968.305-1.698.963-2.337.684-.666 1.415-.967 2.31-.967zM119.19 26.485l-3.635 7.081-2.576-6.416-3.316.576 5.611 12.87 3.939-7.118 3.914 7.111 5.71-12.862-.79-.137-2.527-.439-2.642 6.435zM132.83 27.228c-1.182 0-2.236.407-3.021 1.2-.781.79-1.189 1.83-1.189 2.985 0 .867.287 1.667.843 2.278s1.346 1.033 2.323 1.311h.003l.003.002c.863.237 1.48.52 1.83.786.352.266.43.449.43.667 0 .235-.04.32-.28.479l-.006.003-.004.004c-.253.173-.542.263-.931.263-.374 0-.675-.076-.937-.211-.265-.158-.57-.419-.896-.8l-.41-.48-2.384 2.041.378.485c.584.75 1.234 1.31 1.96 1.64.71.325 1.529.476 2.441.476 1.13 0 2.16-.355 2.997-1.048l.006-.004c.932-.787 1.427-1.908 1.427-3.178 0-1.411-.611-2.595-1.738-3.243h-.003l-.002-.003c-.134-.075-.192-.088-.326-.138-.134-.05-.309-.113-.53-.189-.441-.152-1.065-.36-1.872-.625-.403-.133-.661-.294-.794-.43-.132-.136-.167-.226-.167-.394 0-.337.065-.434.183-.524.141-.107.411-.203.864-.203.359 0 .612.067.785.164l.012.006c.216.114.53.354.894.723l.47.475 2.094-2.337-.426-.43c-.559-.564-1.11-.99-1.676-1.268l-.006-.002c-.683-.328-1.471-.48-2.344-.48z"/></g><g fill="#1793d1"><path d="M143.52 27.44c-1.088 0-1.899.329-2.567 1.01-.674.687-.996 1.496-.996 2.556 0 .74.325 1.173.75 1.645.426.472.884.877 1.964 1.27 1.073.39 1.956.67 2.583 1.15.628.481 1.03 1.141 1.03 1.865 0 .677-.356 1.31-.926 1.692-.528.364-1.162.545-1.838.545a3.667 3.667 0 0 1-1.731-.407l-.014-.007-.012-.008c-.335-.2-.657-.483-.974-.802l-.77.666c.459.501.923.897 1.39 1.113.616.284 1.373.436 2.289.436 1.046 0 1.893-.3 2.635-.92.804-.687 1.182-1.529 1.182-2.696 0-1.315-1.013-2.18-1.772-2.635-.73-.457-1.704-.747-2.514-1.013h-.002c-.603-.202-1.097-.468-1.463-.847a2.04 2.04 0 0 1-.576-1.41c0-.676.241-1.313.745-1.698.482-.369 1.106-.513 1.816-.513.58 0 1.109.109 1.558.359.278.149.571.437.859.687l.67-.756c-.413-.37-.81-.675-1.165-.85h-.001c-.58-.28-1.29-.432-2.15-.432zM154.67 27.388c-1.593 0-2.925.573-4.117 1.787-1.172 1.194-1.733 2.567-1.733 4.239 0 2.003.573 3.582 1.721 4.848h.001c1.143 1.243 2.594 1.851 4.51 1.851.874 0 1.74-.193 2.618-.592.459-.214 1.113-.627 1.819-1.098l-.234-1.267c-1.64 1.172-3.093 1.835-4.407 1.835-.78 0-1.536-.203-2.23-.596l-.008-.005-.008-.006c-.685-.42-1.268-1.03-1.749-1.802l-.313-.503 9.012-5.857c-.59-.868-1.22-1.571-1.911-2.028-.806-.532-1.778-.806-2.97-.806zm.254 1.122c.528 0 1.03.101 1.485.31.45.18.832.426 1.113.76l.44.525-7.82 5.061-.142-1.595v-.027c0-1.346.417-2.542 1.243-3.482l.002-.001c.909-1.026 2.19-1.55 3.679-1.55zM166.54 27.388c-1.677.045-3.915 1.747-4.594 3.104V27.56l-1.078.195v12.299l1.23-.21v-5.73c0-1.405.332-2.636 1.021-3.632l.001-.001v-.001c.738-1.072 1.878-1.66 3.224-1.77l.54-1.322zM177.2 27.388l-4.056 9.806-4.083-9.806-1.05.191 5.154 12.384 5.11-12.383zM184.46 27.388c-1.593 0-2.925.573-4.117 1.787-1.172 1.195-1.733 2.567-1.733 4.239 0 2.003.573 3.581 1.721 4.848 1.143 1.243 2.595 1.851 4.51 1.851.875 0 1.742-.193 2.619-.592.459-.214 1.113-.627 1.819-1.098l-.234-1.267c-1.641 1.172-3.093 1.835-4.407 1.835-.78 0-1.536-.204-2.23-.596l-.008-.005-.009-.006c-.685-.42-1.268-1.03-1.748-1.802l-.313-.503 9.011-5.857c-.589-.868-1.22-1.571-1.91-2.028-.807-.532-1.778-.806-2.97-.806zm.254 1.122c.528 0 1.03.101 1.485.31.45.18.832.426 1.112.76l.441.525-7.82 5.06-.143-1.595v-.027c0-1.345.417-2.541 1.243-3.48l.001-.002h.001c.91-1.026 2.191-1.551 3.68-1.551zM196.42 27.388c-1.745.076-3.906 1.667-4.594 3.104V27.56l-1.078.195v12.299l1.23-.21v-5.73c0-1.406.332-2.637 1.021-3.632l.001-.001v-.001c.738-1.072 1.878-1.66 3.224-1.77l.54-1.322z"/></g><path fill="#1793d1" d="M197.77 39.565v-1.204h-.45V38.2h1.082v.161h-.452v1.204zm.82 0V38.2h.273l.323.968c.031.09.052.156.066.201l.074-.22.325-.95h.244v1.366h-.175v-1.143l-.397 1.143h-.161l-.397-1.161v1.161z"/></svg>